<?xml version="1.0" encoding="utf-8"?>
<!-- Generator: Adobe Illustrator 25.2.0, SVG Export Plug-In . SVG Version: 6.00 Build 0)  -->
<svg version="1.1" id="Layer_1" xmlns="http://www.w3.org/2000/svg" xmlns:xlink="http://www.w3.org/1999/xlink" x="0px" y="0px"
	 viewBox="0 0 600 600" style="enable-background:new 0 0 600 600;" xml:space="preserve">
<style type="text/css">
	.st0{fill:#F6F6F6;}
</style>
<g>
	<polygon class="st0" points="546.6,165.6 546.5,165.5 546.5,165.7 	"/>
	<polygon class="st0" points="466.8,71 466.2,71.5 467.4,71.5 	"/>
	<path class="st0" d="M231.7,311.1l-10.6-12.6c-5-5.9-9.9-11.8-14.9-17.8c-2.2-2.6-2.2-2.6,0-5.1c3.8-4.5,7.6-9.1,11.4-13.6
		c4.6-5.4,9.1-10.9,13.6-16.3c0.5-0.6,0.9-1.3,1.4-1.9c0.2-0.3,0.4-0.6,0.7-1l1.9-2.6l-3.1-0.8c-0.3-0.1-0.6-0.1-0.8-0.2
		c-0.5-0.1-0.9-0.3-1.4-0.3l-4.7,0c-7.8,0-15.9,0-23.8,0.1c-1.8,0-3.6,1.3-4.6,2.5c-7.9,9.3-16.1,19.1-25.1,29.9
		c-3.7,4.5-3.7,9.2,0,13.7c8.9,10.7,16.9,20.3,25.1,29.9c1.2,1.4,3.3,2.4,5.2,2.5c6.7,0.3,13.5,0.4,20,0.6l5.1,0.1
		c0.6,0,1.2,0,1.8,0c0.5,0,1,0,1.5,0l6.8,0l-3.9-5C232.6,312.3,232.2,311.7,231.7,311.1z M223.1,311.4c-7.4,0-14.3,0-21.4-0.1
		c-0.1-0.1-0.4-0.3-0.8-0.8c-9.1-10.8-17.1-20.3-24.5-29.2c-2-2.4-2-4,0-6.4c9.5-11.4,17.3-20.7,24.5-29.2c0.4-0.4,0.9-0.8,1.1-0.8
		c6.7-0.1,13.3-0.1,20.4-0.1l1.8,0c-3.9,4.6-7.7,9.2-11.6,13.8c-3.7,4.4-7.4,8.8-11.1,13.3c-3.8,4.6-3.8,7.7,0,12.3
		c5,6,10,12,15.1,18l7.6,9.1H223.1z"/>
	<path class="st0" d="M121.7,225.2c0.3,0.5,0.5,1,0.9,1.4l5.5,6.6c6.3,7.5,12.7,15.3,19.2,22.8c2.1,2.4,4.5,3.7,7.2,3.7c0,0,0,0,0,0
		c2.7,0,5.3-1.4,7.5-3.9c6.8-8.1,13.7-16.3,20.4-24.3l3.7-4.4c0.5-0.5,0.8-1.1,1.1-1.6c0.1-0.2,0.2-0.4,0.4-0.6l1.1-1.7l-4.2-3.4
		l-14.7,17.5l-1.5-1.8c-2.4-2.8-4.7-5.5-6.9-8.2c-3.5-4.2-8-6.4-13.4-6.4c0,0-0.1,0-0.1,0c-4.2,0-8.4,0-12.6,0c-2.9,0-5.8,0-8.7,0
		c-0.7,0-1.4,0.1-2.2,0.1c-0.4,0-0.8,0.1-1.2,0.1l-3.5,0.2l1.8,3C121.4,224.6,121.6,224.9,121.7,225.2z M133.2,226.9
		c6-0.1,11.7-0.1,17.4,0.2c1.4,0.1,3.6,1.3,5.1,2.9c2.8,2.9,5.3,6,8,9.2c0.7,0.9,1.4,1.7,2.2,2.6c-0.6,0.8-1.3,1.5-1.9,2.3
		c-2.5,3-4.8,5.7-7.3,8.4c-0.6,0.7-1.3,1.1-2,1.1c0,0,0,0,0,0c-0.9,0-1.9-0.6-2.7-1.6c-5.7-6.7-11.3-13.4-17.2-20.5l-3.9-4.7
		C131.6,226.9,132.4,226.9,133.2,226.9z"/>
	<path class="st0" d="M154.6,296.7C154.6,296.7,154.6,296.7,154.6,296.7c-2.8,0-5.4,1.5-7.9,4.5c-7.4,8.7-14.7,17.5-22,26.2l-1.7,2
		c-0.4,0.5-0.7,1-1.1,1.6c-0.2,0.3-0.4,0.6-0.6,1l-2,3.1l3.7,0.2c0.5,0,0.9,0.1,1.3,0.1c0.9,0.1,1.5,0.1,2.2,0.1c2.3,0,4.6,0,6.9,0
		c4.4,0,9,0,13.5,0.1c6.2,0.1,11.1-2.2,14.9-7c2.1-2.6,4.2-5.2,6.5-7.8c0.5-0.5,0.9-1.1,1.4-1.6l14.8,17.5l4.3-3.7l-1.7-2.3
		c-0.4-0.6-0.8-1.1-1.3-1.7l-0.6-0.8c-7.5-9-15.1-18-22.6-27C160.1,298.2,157.4,296.7,154.6,296.7z M165.2,313.6l0.7,0.9
		c-0.8,0.9-1.5,1.8-2.3,2.7c-2.8,3.4-5.7,6.8-8.8,10c-1.1,1.1-3.2,2-4.9,2.1c-5.5,0.2-11,0.2-16.9,0.2c-0.8,0-1.5,0-2.3,0l3.5-4.2
		c5.1-6,9.9-11.9,14.8-17.7c1.4-1.6,4.2-5,5.5-5c0,0,0,0,0,0c1.4,0,4.2,3.3,5.5,5C161.7,309.5,163.4,311.5,165.2,313.6z"/>
	<path class="st0" d="M121.7,294.8c-4.5,5.4-9,10.9-13.5,16.3c-0.6,0.7-0.9,1.4-1.3,2.1c-0.1,0.2-0.2,0.5-0.4,0.7l-1.7,3.1l3.5,0.2
		c0.1,0,0.2,0,0.3,0c1.5,0,2.6-0.5,3.4-1.5l5.3-6.3c6.4-7.7,13-15.6,19.5-23.5c3.8-4.6,3.6-11-0.4-15.9
		c-7.6-9.1-15.3-18.3-22.8-27.2l-0.9-1.1c-0.5-0.6-1.1-1.1-1.6-1.5c-0.2-0.2-0.4-0.3-0.6-0.5l-1.4-1.3l-3.7,3.2l1.2,1.6
		c0.2,0.3,0.4,0.5,0.5,0.8c0.4,0.6,0.9,1.3,1.4,1.9c4.7,5.7,9.5,11.4,14.3,17l8.4,10.1c3.3,3.9,3.3,6.5,0,10.5
		C128,287.2,124.8,291,121.7,294.8z"/>
	<path class="st0" d="M286.1,124.5c6.5,7.8,12.4,14.8,18.4,21.9c0.9,1,2.4,1.7,3.8,1.8c4.9,0.2,9.9,0.3,14.7,0.4l3.7,0.1
		c0.4,0,0.8,0,1.3,0c0.3,0,0.7,0,1.1,0l5,0l-2.9-3.7c-0.5-0.6-0.8-1-1.1-1.4l-7.7-9.2c-3.6-4.3-7.3-8.7-10.9-13
		c-1.6-1.9-1.6-1.9,0-3.8c2.8-3.3,5.6-6.6,8.4-10c3.3-4,6.7-7.9,10-11.9c0.4-0.4,0.7-0.9,1-1.4c0.2-0.2,0.3-0.5,0.5-0.7l1.4-1.9
		l-2.3-0.6c-0.2-0.1-0.4-0.1-0.6-0.2c-0.3-0.1-0.7-0.2-1.1-0.2l-3.5,0c-5.7,0-11.6,0-17.4,0c-1.3,0-2.6,0.9-3.4,1.8
		c-5.8,6.8-11.8,14-18.4,21.9C283.4,117.8,283.4,121.2,286.1,124.5z M289.6,117.2c7-8.3,12.7-15.1,17.9-21.3
		c0.3-0.3,0.7-0.6,0.8-0.6c4.9-0.1,9.8-0.1,14.9-0.1l1.3,0c-2.8,3.4-5.7,6.7-8.5,10.1c-2.7,3.2-5.4,6.5-8.1,9.7
		c-2.8,3.3-2.8,5.6,0,9c3.7,4.4,7.3,8.8,11,13.1l5.6,6.6h-0.8c-5.4,0-10.5,0-15.7,0c-0.1-0.1-0.3-0.2-0.6-0.6
		c-6.7-7.9-12.5-14.9-17.9-21.4C288.1,120.1,288.1,118.9,289.6,117.2z"/>
	<path class="st0" d="M249.6,80.7c0.2,0.4,0.4,0.7,0.7,1l4,4.8c4.6,5.5,9.3,11.2,14,16.7c1.5,1.8,3.3,2.7,5.3,2.7c0,0,0,0,0,0
		c2,0,3.9-1,5.5-2.9c5-5.9,10-11.9,14.9-17.8l2.7-3.2c0.3-0.4,0.6-0.8,0.8-1.2c0.1-0.1,0.2-0.3,0.3-0.4l0.8-1.2l-3.1-2.5l-10.8,12.8
		l-1.1-1.3c-1.7-2-3.4-4-5.1-6c-2.6-3.1-5.9-4.7-9.8-4.7c0,0-0.1,0-0.1,0c-3.1,0-6.2,0-9.2,0c-2.1,0-4.3,0-6.4,0c-0.5,0-1,0-1.6,0.1
		c-0.3,0-0.6,0-0.9,0.1l-2.6,0.2l1.3,2.2C249.4,80.3,249.5,80.5,249.6,80.7z M258,82c4.4,0,8.6-0.1,12.7,0.2
		c1.1,0.1,2.6,0.9,3.8,2.1c2,2.1,3.9,4.4,5.8,6.8c0.5,0.6,1,1.3,1.6,1.9c-0.5,0.6-0.9,1.1-1.4,1.7c-1.8,2.2-3.5,4.2-5.3,6.2
		c-0.5,0.5-1,0.8-1.5,0.8c0,0,0,0,0,0c-0.6,0-1.4-0.4-2-1.2c-4.2-4.9-8.3-9.8-12.6-15l-2.8-3.4C256.8,82,257.4,82,258,82z"/>
	<path class="st0" d="M268,161.5c4.5,0.1,8.1-1.6,10.9-5.1c1.5-1.9,3.1-3.8,4.8-5.7c0.3-0.4,0.7-0.8,1-1.2l10.8,12.8l3.1-2.7
		l-1.3-1.7c-0.3-0.4-0.6-0.8-0.9-1.2l-0.5-0.6c-5.5-6.6-11-13.2-16.6-19.7c-1.9-2.2-3.8-3.3-5.9-3.3c0,0,0,0,0,0c-2,0-4,1.1-5.8,3.3
		c-5.4,6.4-10.7,12.8-16.1,19.2l-1.2,1.5c-0.3,0.4-0.5,0.8-0.8,1.2c-0.1,0.2-0.3,0.4-0.4,0.7l-1.4,2.3l2.7,0.2c0.4,0,0.7,0,1,0.1
		c0.6,0,1.1,0.1,1.6,0.1c1.7,0,3.4,0,5,0C261.4,161.4,264.8,161.4,268,161.5z M257.9,157c-0.6,0-1.1,0-1.7,0l2.6-3
		c3.7-4.4,7.3-8.7,10.9-13c1-1.2,3-3.6,4-3.6c0,0,0,0,0,0c1,0,3,2.4,4,3.6c1.2,1.5,2.4,2.9,3.7,4.4l0.5,0.6c-0.6,0.7-1.1,1.3-1.7,2
		c-2.1,2.5-4.2,5-6.5,7.3c-0.8,0.8-2.3,1.5-3.6,1.5C266.2,157,262.2,157,257.9,157z"/>
	<path class="st0" d="M260.3,113.5c-5.5-6.7-11.2-13.4-16.7-19.9l-0.7-0.8c-0.4-0.4-0.8-0.8-1.2-1.1c-0.1-0.1-0.3-0.2-0.4-0.4l-1-1
		l-2.7,2.4l0.8,1.2c0.1,0.2,0.3,0.4,0.4,0.6c0.3,0.5,0.6,0.9,1,1.4c3.5,4.2,7,8.3,10.4,12.5l6.2,7.4c2.4,2.9,2.4,4.7,0,7.7
		c-2.3,2.8-4.6,5.5-6.9,8.3c-3.3,4-6.6,7.9-9.9,11.9c-0.4,0.5-0.7,1.1-0.9,1.5c-0.1,0.2-0.2,0.4-0.3,0.5l-1.3,2.3l2.6,0.1
		c0.1,0,0.2,0,0.2,0c1.1,0,1.9-0.4,2.5-1.1l3.9-4.6c4.7-5.6,9.5-11.4,14.2-17.2C263.4,121.7,263.3,117.1,260.3,113.5z"/>
	<path class="st0" d="M336.7,506.4l-6.4-7.7c-3-3.6-6-7.2-9.1-10.8c-1.3-1.6-1.3-1.6,0-3.1c2.3-2.8,4.6-5.5,7-8.3
		c2.8-3.3,5.5-6.6,8.3-9.9c0.3-0.4,0.6-0.8,0.9-1.2c0.1-0.2,0.3-0.4,0.4-0.6l1.1-1.6l-1.9-0.5c-0.2,0-0.3-0.1-0.5-0.1
		c-0.3-0.1-0.5-0.2-0.9-0.2l-2.9,0c-4.8,0-9.7,0-14.5,0c-1.1,0-2.2,0.8-2.8,1.5c-4.8,5.7-9.8,11.6-15.3,18.2c-2.3,2.7-2.3,5.6,0,8.4
		c5.4,6.5,10.3,12.3,15.3,18.2c0.7,0.8,2,1.5,3.2,1.5c4.1,0.2,8.2,0.3,12.2,0.4l3.1,0.1c0.4,0,0.7,0,1.1,0c0.3,0,0.6,0,0.9,0l4.1,0
		l-2.4-3.1C337.2,507.1,337,506.8,336.7,506.4z M331.4,506.6c-4.5,0-8.7,0-13.1,0c-0.1-0.1-0.2-0.2-0.5-0.5
		c-5.5-6.6-10.4-12.4-14.9-17.8c-1.2-1.5-1.2-2.4,0-3.9c5.8-7,10.5-12.6,14.9-17.8c0.2-0.3,0.6-0.5,0.7-0.5c4.1-0.1,8.1-0.1,12.4,0
		l1.1,0c-2.4,2.8-4.7,5.6-7.1,8.4c-2.3,2.7-4.5,5.4-6.8,8.1c-2.3,2.8-2.3,4.7,0,7.5c3.1,3.6,6.1,7.3,9.2,10.9l4.6,5.5H331.4z"/>
	<path class="st0" d="M298,460.3c-1.4-1.7-2.8-3.4-4.2-5c-2.1-2.6-4.9-3.9-8.2-3.9c0,0,0,0-0.1,0c-2.6,0-5.1,0-7.7,0
		c-1.8,0-3.5,0-5.3,0c-0.4,0-0.8,0-1.3,0.1c-0.2,0-0.5,0-0.7,0.1l-2.1,0.1l1.1,1.9c0.1,0.2,0.2,0.4,0.3,0.5c0.2,0.3,0.3,0.6,0.6,0.9
		l3.4,4c3.8,4.6,7.8,9.3,11.7,13.9c1.3,1.5,2.8,2.2,4.4,2.2c0,0,0,0,0,0c1.7,0,3.3-0.8,4.6-2.4c4.2-4.9,8.4-9.9,12.4-14.8l2.3-2.7
		c0.3-0.3,0.5-0.7,0.7-1c0.1-0.1,0.2-0.2,0.2-0.4l0.7-1l-2.6-2.1l-9,10.6L298,460.3z M295.4,465.7c-1.5,1.8-2.9,3.5-4.4,5.1
		c-0.4,0.4-0.8,0.6-1.2,0.6c0,0,0,0,0,0c-0.5,0-1.1-0.4-1.7-1c-3.5-4.1-6.9-8.2-10.5-12.5l-2.4-2.8c0.5,0,1,0,1.5,0
		c3.7,0,7.1-0.1,10.6,0.1c0.9,0,2.2,0.8,3.1,1.8c1.7,1.8,3.2,3.6,4.9,5.6c0.4,0.5,0.9,1.1,1.3,1.6
		C296.2,464.7,295.8,465.2,295.4,465.7z"/>
	<path class="st0" d="M308.7,517.3l-0.4-0.5c-4.6-5.5-9.2-11-13.8-16.4c-1.5-1.8-3.2-2.8-4.9-2.8c0,0,0,0,0,0
		c-1.7,0-3.3,0.9-4.8,2.7c-4.5,5.3-8.9,10.6-13.4,16l-1,1.2c-0.3,0.3-0.4,0.6-0.7,1c-0.1,0.2-0.2,0.4-0.4,0.6l-1.2,1.9l2.2,0.1
		c0.3,0,0.6,0,0.8,0.1c0.5,0,0.9,0.1,1.4,0.1c1.4,0,2.8,0,4.2,0c2.7,0,5.5,0,8.2,0c3.7,0.1,6.8-1.3,9.1-4.3c1.3-1.6,2.6-3.1,4-4.8
		c0.3-0.3,0.6-0.7,0.8-1l9,10.7l2.6-2.2l-1-1.4C309.3,518,309,517.6,308.7,517.3z M295.2,510.1c-1.7,2.1-3.5,4.2-5.4,6.1
		c-0.7,0.7-2,1.2-3,1.3c-3.4,0.1-6.7,0.1-10.3,0.1c-0.5,0-0.9,0-1.4,0l2.1-2.5c3.1-3.7,6.1-7.2,9-10.8c0.8-1,2.5-3,3.4-3
		c0,0,0,0,0,0c0.8,0,2.5,2,3.3,3c1,1.2,2,2.4,3.1,3.7l0.4,0.5C296.1,509,295.7,509.6,295.2,510.1z"/>
	<path class="st0" d="M278.6,481.4c-4.6-5.5-9.3-11.1-13.9-16.6l-0.6-0.7c-0.3-0.4-0.7-0.7-1-0.9c-0.1-0.1-0.2-0.2-0.4-0.3l-0.9-0.8
		l-2.3,2l0.7,1c0.1,0.2,0.2,0.3,0.3,0.5c0.3,0.4,0.5,0.8,0.8,1.2c2.9,3.5,5.8,6.9,8.7,10.4l5.1,6.1c2,2.4,2,4,0,6.4
		c-1.9,2.3-3.8,4.6-5.7,6.9c-2.7,3.3-5.5,6.6-8.2,9.9c-0.3,0.4-0.6,0.9-0.8,1.3c-0.1,0.1-0.2,0.3-0.2,0.4l-1.1,1.9l2.2,0.1
		c0.1,0,0.1,0,0.2,0c0.9,0,1.6-0.3,2.1-0.9l3.2-3.9c3.9-4.7,7.9-9.5,11.9-14.3C281.2,488.2,281.1,484.3,278.6,481.4z"/>
	<path class="st0" d="M531,526.6c-3.4-4.1-3.4-6.8-0.1-10.8c5.5-6.6,10.7-12.8,15.6-18.6v-15.8c-7.6,9-15.4,18.4-23.6,28.2
		c-5.3,6.4-6.1,13.2-2.4,19.7h12.8C532.5,528.4,531.7,527.5,531,526.6z"/>
	<path class="st0" d="M519.8,451.7l-2.6-3c-4-4.7-7.9-9.3-11.7-14c-5.9-7.2-13.6-10.8-22.8-10.8c-0.1,0-0.1,0-0.2,0
		c-7.1,0-14.3,0-21.4,0c-4.9,0-9.9,0-14.8,0c-1.2,0-2.4,0.1-3.7,0.2c-0.6,0.1-1.3,0.1-2.1,0.2l-6,0.4l3,5.2c0.3,0.5,0.6,1,0.8,1.4
		c0.5,0.9,0.9,1.7,1.5,2.4l9.4,11.2c10.6,12.7,21.6,25.9,32.6,38.7c3.5,4.1,7.7,6.3,12.2,6.3c0,0,0,0,0,0c4.7,0,9.1-2.3,12.8-6.7
		c11.6-13.7,23.3-27.7,34.6-41.2l5.3-6.3v-12.2l-1.7-1.4L519.8,451.7z M509.9,463.6c-4.2,5-8.1,9.7-12.3,14.3
		c-1.1,1.2-2.3,1.8-3.5,1.8c0,0-0.1,0-0.1,0c-1.5,0-3.1-1-4.6-2.8c-9.7-11.4-19.2-22.8-29.3-34.8l-6.6-7.9c1.4,0,2.8,0,4.2,0
		c10.2-0.1,19.9-0.2,29.5,0.3c2.5,0.1,6.1,2.2,8.7,5c4.7,4.9,9,10.1,13.6,15.7c1.2,1.5,2.4,3,3.7,4.5
		C512,461,510.9,462.3,509.9,463.6z"/>
	<path class="st0" d="M463.1,507.3c-12.8-15.4-26-31.1-38.7-46.2l-1.5-1.8c-0.9-1-1.9-1.9-2.7-2.6c-0.3-0.3-0.7-0.6-1-0.9l-2.4-2.2
		l-6.3,5.5l2,2.8c0.3,0.4,0.6,0.9,0.9,1.3c0.7,1.1,1.5,2.1,2.3,3.2c8.1,9.6,16.1,19.3,24.2,28.9l14.3,17.1c5.4,6.4,5.6,10.7,0.6,17
		h12.1C469.8,522.2,468.6,513.9,463.1,507.3z"/>
	<path class="st0" d="M529.4,117.7c6,7.2,11.6,13.8,17.1,20.4v-9.3c-4.3-5.2-8.4-10.1-12.3-14.8c-2-2.4-2-4,0-6.4
		c4.5-5.4,8.6-10.2,12.4-14.8v-9.3C541,90,535.4,96.7,529.4,104C525.6,108.4,525.7,113.2,529.4,117.7z"/>
	<path class="st0" d="M512.3,92.3C512.3,92.3,512.3,92.3,512.3,92.3c2.8,0,5.4-1.4,7.5-3.9c4.7-5.6,9.5-11.2,14.2-16.9h-12.8
		c0.1,0.1,0.2,0.3,0.3,0.4c0.7,0.9,1.4,1.7,2.2,2.6c-0.6,0.8-1.3,1.5-1.9,2.3c-2.5,3-4.8,5.7-7.3,8.4c-0.6,0.7-1.3,1.1-2,1.1
		c0,0,0,0,0,0c-0.9,0-1.9-0.6-2.7-1.6c-3.7-4.4-7.4-8.7-11.1-13.2h-7.8c4.8,5.7,9.6,11.4,14.4,17.1C507.1,91,509.6,92.3,512.3,92.3z
		"/>
	<path class="st0" d="M543.6,161.6l-0.6-0.8c-7.5-9-15.1-18-22.6-27c-2.5-3-5.2-4.5-8-4.5c0,0,0,0,0,0c-2.8,0-5.4,1.5-7.9,4.5
		c-7.4,8.7-14.7,17.5-22,26.2l-1.7,2c-0.4,0.5-0.7,1-1.1,1.6c-0.2,0.3-0.4,0.6-0.6,1l-2,3.1l3.7,0.2c0.5,0,0.9,0.1,1.3,0.1
		c0.9,0.1,1.5,0.1,2.2,0.1c2.3,0,4.6,0,6.9,0c4.4,0,9,0,13.5,0.1c6.2,0.1,11.1-2.2,14.9-7c2.1-2.6,4.2-5.2,6.5-7.8
		c0.5-0.5,0.9-1.1,1.4-1.6l14.8,17.5l4.2-3.6v-0.2l-1.6-2.2C544.5,162.7,544.1,162.1,543.6,161.6z M521.4,149.8
		c-2.8,3.4-5.7,6.8-8.8,10c-1.1,1.1-3.2,2-4.9,2.1c-5.5,0.2-11,0.2-16.9,0.2c-0.8,0-1.5,0-2.3,0l3.5-4.2c5.1-6,9.9-11.9,14.8-17.7
		c1.4-1.6,4.2-5,5.5-5c0,0,0,0,0,0c1.4,0,4.2,3.3,5.5,5c1.7,2,3.3,4,5.1,6.1l0.7,0.9C522.9,148,522.1,148.9,521.4,149.8z"/>
	<path class="st0" d="M464.2,75.8c0.2,0.3,0.4,0.5,0.5,0.8c0.4,0.6,0.9,1.3,1.4,1.9c4.7,5.7,9.5,11.4,14.3,17l8.4,10.1
		c3.3,3.9,3.3,6.5,0,10.5c-3.1,3.8-6.3,7.6-9.4,11.4c-4.5,5.4-9,10.9-13.5,16.3c-0.6,0.7-0.9,1.4-1.3,2.1c-0.1,0.2-0.2,0.5-0.4,0.7
		l-1.7,3.1l3.5,0.2c0.1,0,0.2,0,0.3,0c1.5,0,2.6-0.5,3.4-1.5l5.3-6.3c6.4-7.7,13-15.6,19.5-23.5c3.8-4.6,3.6-11-0.4-15.9
		c-7.6-9.1-15.3-18.3-22.8-27.2l-0.9-1.1c-0.5-0.6-1.1-1.1-1.6-1.5c-0.2-0.2-0.4-0.3-0.6-0.5l-0.8-0.8h-1.2l-3.1,2.7L464.2,75.8z"/>
	<path class="st0" d="M186.6,496.6c-0.6-0.8-1.1-1.4-1.6-2l-10.8-12.9c-5.1-6.1-10.2-12.1-15.2-18.2c-1.7-2.1-1.7-2.1,0-4.1
		c3.9-4.7,7.8-9.3,11.7-14l14-16.7c0.5-0.6,1-1.3,1.5-2l2.6-3.7c0.2-0.2,0.2-0.5,0.1-0.8c-0.1-0.3-0.3-0.5-0.6-0.5l-3.2-0.8
		c-0.3-0.1-0.5-0.1-0.8-0.2c-0.5-0.1-1-0.3-1.7-0.3l-4.8,0c-8,0-16.2,0-24.4,0.1c-2.2,0-4.3,1.5-5.4,2.8
		c-8.1,9.6-16.5,19.6-25.7,30.6c-4.1,4.9-4.1,10.3,0,15.2c9.1,10.9,17.3,20.8,25.8,30.6c1.4,1.6,3.8,2.7,5.9,2.8
		c6.7,0.3,13.5,0.4,20.2,0.6l5.6,0.1c0.6,0,1.2,0,1.9,0l8.5,0c0.3,0,0.6-0.2,0.8-0.5c0.2-0.3,0.1-0.7-0.1-0.9L186.6,496.6z
		 M181.5,501.4c-0.6,0-1.2,0-1.8,0l-5.6-0.1c-6.6-0.1-13.4-0.3-20.1-0.6c-1.7-0.1-3.6-1-4.7-2.2c-8.4-9.8-16.6-19.7-25.8-30.6
		c-3.6-4.3-3.6-8.7,0-12.9c9.2-11.1,17.6-21.1,25.7-30.6c0.9-1.1,2.6-2.2,4.1-2.2c4.9-0.1,9.8-0.1,14.6-0.1c3.3,0,6.5,0,9.7,0l4.8,0
		c0.4,0,0.8,0.1,1.4,0.3c0.2,0.1,0.4,0.1,0.7,0.2l1.9,0.5l-1.9,2.7c-0.4,0.7-0.9,1.3-1.4,1.9l-14,16.7c-3.9,4.7-7.8,9.3-11.7,14
		c-2.5,2.9-2.5,3.4,0,6.4c5.1,6.1,10.2,12.1,15.3,18.2l10.8,12.9c0.5,0.6,0.9,1.2,1.6,2c0,0,0,0,0,0l2.9,3.7L181.5,501.4z"/>
	<path class="st0" d="M169.5,485.5c-5.1-6.1-10.3-12.3-15.4-18.4c-3.7-4.4-3.7-7.1,0-11.5c3.8-4.5,7.6-9.1,11.4-13.6l11.9-14.2
		c0.2-0.3,0.3-0.6,0.1-0.9c-0.1-0.3-0.5-0.5-0.8-0.5l-1.9,0c-6.8,0-13.9,0-21.1,0.1c-0.4,0.1-1.2,0.6-1.6,1.1
		c-7.3,8.6-15.3,18.1-25.1,29.9c-2.3,2.8-2.3,4.8,0,7.7c7.6,9.1,15.8,18.9,25.1,29.9c0.3,0.4,0.7,0.7,0.9,0.9
		c0.2,0.1,0.3,0.2,0.5,0.2c5.3,0.1,10.5,0.1,15.9,0.1c1.6,0,3.3,0,4.9,0h2.2c0.3,0,0.7-0.2,0.8-0.5c0.1-0.3,0.1-0.7-0.1-0.9
		L169.5,485.5z M174.4,494.5c-7,0-13.7,0-20.5-0.1c-0.1-0.1-0.2-0.2-0.4-0.5c-9.3-11-17.5-20.8-25.1-29.9c-1.8-2.2-1.8-3.3,0-5.4
		c9.8-11.7,17.8-21.2,25.1-29.9c0.2-0.2,0.5-0.4,0.6-0.5c6.9-0.1,13.9-0.1,20.6-0.1L164,440.9c-3.8,4.5-7.6,9.1-11.4,13.6
		c-4.2,5-4.2,8.7,0,13.7c5.1,6.1,10.3,12.3,15.4,18.4l6.6,7.8H174.4z"/>
	<path class="st0" d="M70.4,406.6c0.2,0.3,0.3,0.6,0.5,0.8l0.8-0.4l-0.8,0.4c0.3,0.5,0.6,1.1,1,1.6l5.6,6.8
		c6,7.2,12.9,15.4,19.7,23.4c2.3,2.7,5.1,4.1,8.1,4.1c3.1,0,6-1.5,8.4-4.3c7-8.2,14-16.6,20.9-24.9l3.8-4.5c0.5-0.6,0.9-1.2,1.2-1.8
		c0.1-0.2,0.2-0.4,0.4-0.6l1.1-1.7c0.3-0.4,0.2-0.9-0.2-1.2l-4.3-3.5c-0.4-0.3-0.9-0.2-1.2,0.1L120.9,418l-1-1.1
		c-2.4-2.8-4.7-5.6-7-8.3c-3.8-4.6-8.6-6.9-14.6-6.9c-4.3,0-8.6,0-12.9,0c-3,0-6,0-9,0c-0.7,0-1.5,0.1-2.3,0.1l-4.8,0.3
		c-0.3,0-0.6,0.2-0.7,0.5c-0.1,0.3-0.1,0.6,0,0.9L70.4,406.6z M74.3,403.6c0.8-0.1,1.5-0.1,2.2-0.1c3,0,6,0,9,0c4.3,0,8.6,0,13.1,0
		c5.3,0,9.7,2.1,13.1,6.2c2.3,2.8,4.6,5.5,7.1,8.5l1.5,1.8c0.3,0.4,1,0.4,1.4,0l14.5-17.2l3,2.4l-0.7,1c-0.1,0.2-0.3,0.4-0.4,0.7
		c-0.3,0.5-0.6,1-1.1,1.5l-3.9,4.7c-6.8,8.1-13.8,16.5-20.7,24.7c-2.1,2.4-4.5,3.7-7,3.7c-2.5,0-4.8-1.2-6.7-3.5
		c-6.8-7.9-13.6-16.1-19.6-23.4l-5.7-6.8c-0.3-0.4-0.5-0.8-0.8-1.3l0,0c0,0,0,0,0,0c-0.1-0.2-0.3-0.5-0.5-0.9l-1.1-1.9L74.3,403.6z"
		/>
	<path class="st0" d="M84.2,414.2c6.1,7.3,11.8,14.1,17.7,21c1.1,1.3,2.3,2,3.5,2c1,0,1.9-0.5,2.7-1.4c2.5-2.7,4.9-5.6,7.5-8.7
		l2-2.4c0.3-0.3,0.3-0.8,0-1.1c-0.7-0.8-1.4-1.7-2.1-2.5l-0.2-0.3c-2.7-3.3-5.3-6.5-8.2-9.4c-1.8-1.9-4.2-3.2-5.9-3.3
		c-5.8-0.3-11.6-0.3-17.8-0.2l-2.5,0c-0.3,0-0.7,0.2-0.8,0.5c-0.1,0.3-0.1,0.7,0.1,0.9L84.2,414.2z M83.6,409.8
		c6.1-0.1,11.8-0.1,17.6,0.2c1.3,0.1,3.2,1.2,4.7,2.7c2.8,2.9,5.4,6,8.1,9.4l0.2,0.2c0.5,0.6,1.1,1.3,1.6,1.9l-1.6,2
		c-2.5,3-4.8,5.8-7.3,8.5c-0.5,0.5-1,0.8-1.5,0.8c0,0,0,0,0,0c-0.6,0-1.4-0.5-2.1-1.4c0,0,0,0,0,0c-5.9-6.9-11.6-13.7-17.6-21
		l-2.8-3.3L83.6,409.8z"/>
	<path class="st0" d="M111.7,490.9c-2.8-3.3-4.8-5.4-6.3-5.4c-1.5,0-3.5,2.1-6.3,5.4c-5,6-10,12-15.2,18.1l-3.6,4.3
		c-0.2,0.3-0.3,0.6-0.1,0.9c0.1,0.3,0.5,0.5,0.8,0.5l2.4,0c2.3,0,4.5,0,6.7,0c3.6,0,7.1,0,10.7-0.2c1.9-0.1,4.3-1.1,5.6-2.4
		c3.2-3.3,6.2-6.8,9.1-10.3l2.3-2.7c0.3-0.3,0.3-0.8,0-1.1L111.7,490.9z M113.9,500.7c-2.9,3.4-5.9,7-9,10.2c-1,1-2.9,1.8-4.4,1.9
		c-5.6,0.2-11.3,0.2-17.3,0.2l-0.5,0l2.4-2.8c5.2-6.2,10.2-12.2,15.2-18.2c3.3-3.9,4.5-4.7,5-4.7c0.4,0,1.5,0.6,4.9,4.8l5.5,6.5
		L113.9,500.7z"/>
	<path class="st0" d="M139.4,514.6c-0.4-0.6-0.9-1.2-1.3-1.8l-2.6-3.1c-7.1-8.5-14.2-16.9-21.2-25.3c-5.5-6.6-12.2-6.6-17.7-0.1
		c-7.5,8.9-15,17.9-22.5,26.9l-1.7,2.1c-0.5,0.6-0.8,1.2-1.2,1.8c-0.2,0.3-0.4,0.6-0.6,1l-2,3.2c-0.2,0.3-0.2,0.6,0,0.9
		c0.1,0.3,0.4,0.5,0.7,0.5l5.1,0.3c0.9,0.1,1.6,0.1,2.4,0.1c2.2,0,4.3,0,6.4,0l0.8,0c4.5,0,9.1,0,13.6,0.1c6.7,0.1,11.9-2.3,16-7.5
		c2.1-2.7,4.3-5.3,6.7-8l0.7-0.9l14.5,17.1c0.2,0.2,0.4,0.3,0.6,0.3c0,0,0,0,0.1,0c0.2,0,0.4-0.1,0.6-0.2l4.4-3.7
		c0.4-0.3,0.4-0.8,0.1-1.2L139.4,514.6z M136.2,520l-14.6-17.3c-0.2-0.2-0.4-0.3-0.7-0.3c-0.3,0-0.5,0.1-0.7,0.3l-1.4,1.7
		c-2.2,2.6-4.5,5.3-6.7,8c-3.7,4.7-8.4,6.9-14.6,6.8c-4.5-0.1-9.2-0.1-13.8-0.1l-0.6,0c-1.6,0-3.2,0-4.8,0c-1.2,0-2.3,0-3.9-0.1
		l-3.6-0.2l1.2-1.9c0.2-0.4,0.4-0.7,0.6-1c0.4-0.6,0.6-1.1,1-1.6l1.7-2.1c7.5-9,15-17.9,22.5-26.9c4.8-5.7,10.2-5.7,15,0.1
		c7.1,8.4,14.2,16.9,21.2,25.3l2.6,3.1l0,0c0.4,0.5,0.8,1.1,1.3,1.7l1.3,1.7L136.2,520z"/>
	<path class="st0" d="M87.4,452.4c-7.7-9.3-15.7-18.7-23.4-27.9l-0.9-1.1c-0.6-0.7-1.2-1.2-1.8-1.7c-0.2-0.1-0.3-0.3-0.5-0.4
		l-1.5-1.3c-0.3-0.3-0.8-0.3-1.2,0l-3.8,3.3c-0.3,0.3-0.4,0.8-0.1,1.2l1.7,2.4c0.5,0.7,0.9,1.3,1.5,2c4.9,5.8,9.7,11.6,14.6,17.4
		l8.6,10.3c3.1,3.7,3.1,5.9,0,9.6c-2.9,3.5-5.7,6.9-8.6,10.4l-1.1,1.3c-4.6,5.6-9.2,11.1-13.8,16.7c-0.6,0.8-1.1,1.6-1.5,2.4
		c-0.1,0.2-0.2,0.4-0.3,0.6l-1.8,3.2c-0.2,0.3-0.2,0.6,0,0.9c0.2,0.3,0.4,0.4,0.7,0.5l3.6,0.2c0.1,0,0.3,0,0.4,0
		c1.8,0,3.2-0.6,4.2-1.8l5.8-6.9c6.4-7.7,13.1-15.7,19.6-23.6C92,464.7,91.8,457.7,87.4,452.4z M66.9,492.3l-5.8,6.9
		c-0.7,0.8-1.6,1.2-2.8,1.2l-2.5-0.1l1.1-1.9c0.1-0.2,0.2-0.5,0.4-0.8c0.3-0.6,0.7-1.4,1.2-2c4.6-5.6,9.2-11.1,13.8-16.7l1.1-1.3
		c2.9-3.5,5.7-6.9,8.6-10.4c3.6-4.4,3.6-7.5,0-11.9l-8.6-10.3c-4.9-5.8-9.7-11.6-14.6-17.4c-0.5-0.6-0.9-1.2-1.5-2l-1.2-1.6l2.6-2.3
		l0.9,0.8c0.2,0.2,0.4,0.3,0.6,0.6c0.5,0.4,1,0.9,1.5,1.5l0.9,1.1c7.7,9.1,15.6,18.5,23.4,27.8c3.9,4.6,4,10.7,0.4,15.1
		C80,476.6,73.3,484.6,66.9,492.3z"/>
	<path class="st0" d="M541.3,351.8c-1.1-1.5-2-2.5-2.8-3.6l-19.9-23.7c-9.3-11.1-18.7-22.3-28-33.4c-1.6-2-2.7-3.3-2.7-4
		c0-0.7,1.1-2,2.7-3.9c7.2-8.5,14.3-17.1,21.5-25.6l2.7-3.2c7.7-9.1,15.3-18.3,23-27.4c1-1.2,1.8-2.4,2.7-3.7
		c0.4-0.6,0.8-1.2,1.3-1.9l3.5-5c0.3-0.4,0.3-0.9,0.2-1.3s-0.5-0.8-1-0.9l-5.9-1.4c-0.5-0.1-0.9-0.2-1.4-0.4
		c-0.9-0.3-1.9-0.5-3.1-0.5l-8.9,0c-13.9,0-29.6-0.1-44.8,0.1c-4,0.1-7.8,2.8-9.8,5.1c-14.8,17.4-30.2,35.8-47.2,56.2
		c-7.4,8.9-7.4,18.7,0.1,27.6c16.7,20,31.8,38,47.3,56.2c2.5,2.9,6.8,5,10.8,5.1c12.6,0.5,25.4,0.8,37.7,1.1l9.5,0.2
		c1.1,0,2.2,0,3.4,0l14.5,0v-5.2l-5.2-6.6L541.3,351.8z M532,360.9c-1.2,0-2.3,0-3.3,0l-9.5-0.2c-12.3-0.3-25.1-0.6-37.7-1.1
		c-3.1-0.1-6.8-1.9-8.7-4.1c-15.5-18.2-30.6-36.2-47.3-56.2c-6.7-8-6.7-16.1-0.1-24c17-20.4,32.5-38.8,47.2-56.2
		c1.7-2,4.8-4.1,7.6-4.1c9-0.1,18.1-0.2,27-0.2c6.1,0,12.1,0,17.8,0l8.9,0c0.8,0,1.5,0.2,2.5,0.5c0.4,0.1,0.8,0.2,1.3,0.4l3.9,0.9
		l-2.3,3.2c-0.5,0.7-0.9,1.3-1.3,1.9c-0.8,1.2-1.6,2.4-2.6,3.5c-7.6,9.1-15.3,18.3-23,27.4l-2.7,3.2c-7.2,8.5-14.3,17.1-21.5,25.6
		c-4.5,5.3-4.5,6.1,0.1,11.5c9.3,11.1,18.7,22.3,28,33.4l28.3,34.5L532,360.9z"/>
	<path class="st0" d="M504.7,325.6c-7.7-9.2-15.5-18.4-23.2-27.7c-6.9-8.2-6.9-13.2-0.1-21.3c7-8.3,13.9-16.6,20.9-24.9
		c7.3-8.7,14.5-17.3,21.8-26c0.4-0.4,0.4-1,0.2-1.5c-0.2-0.5-0.7-0.8-1.3-0.8l-3.4,0c-13.2,0-25.6,0-38.3,0.1c-0.1,0-0.2,0-0.3,0
		c-0.8,0.2-2.1,1.1-2.8,2c-13.5,15.9-28.2,33.4-46.1,54.9c-4.2,5-4.1,8.7,0.1,13.8c13.7,16.4,28.7,34.4,46,54.9
		c0.6,0.7,1.2,1.3,1.7,1.6c0.2,0.2,0.5,0.3,0.8,0.3c9.7,0.1,19.2,0.1,29,0.1c3.5,0,7,0,10.6,0h2.7c0.6,0,1.1-0.3,1.3-0.8
		s0.2-1.1-0.2-1.5L504.7,325.6z M481.3,348.1c-0.2-0.2-0.5-0.5-0.9-0.9c-17.3-20.5-32.4-38.5-46-54.9c-3.4-4-3.4-6.2-0.1-10.2
		c17.9-21.5,32.6-38.9,46.1-54.9c0.4-0.5,1-0.9,1.2-1c12.6-0.2,25-0.2,38-0.1h0.4c-6.6,7.9-13.2,15.8-19.8,23.7
		c-7,8.3-13.9,16.6-20.9,24.9c-7.7,9.2-7.7,15.7,0.1,25c7.7,9.2,15.5,18.5,23.2,27.7l17.5,20.8C506.7,348.2,494.1,348.2,481.3,348.1
		z"/>
	<path class="st0" d="M326.2,178.8c-0.5,0-0.9,0.3-1.2,0.8c-0.2,0.4-0.2,1,0,1.4l3.3,5.7c0.3,0.5,0.5,0.9,0.7,1.3l0.1,0.2
		c0.5,1,1,2,1.9,2.9l10.6,12.7c11.7,14,23.8,28.5,35.8,42.6c4.1,4.9,9.2,7.4,14.7,7.4c5.6,0,10.9-2.7,15.2-7.9
		c12.9-15.2,25.8-30.7,38.3-45.7l7-8.3c0.9-1.1,1.6-2.2,2.3-3.4c0.2-0.3,0.4-0.6,0.6-1l2.1-3.1c0.4-0.6,0.3-1.4-0.3-1.9l-8-6.3
		c-0.6-0.5-1.5-0.4-2,0.2L420.9,208l-1.8-2.1c-4.4-5.2-8.7-10.3-13-15.5c-6.8-8.3-15.7-12.5-26.6-12.5c-7.9,0-15.8,0-23.7,0
		c-5.5,0-11,0-16.4,0c-1.4,0-2.7,0.1-4.3,0.2l-0.4,0c-0.6,0-1.2,0.1-1.9,0.1L326.2,178.8z M335,181l0.4,0c1.5-0.1,2.8-0.2,4-0.2
		c5.5,0,11,0,16.4,0c7.9,0,15.8,0,24,0c9.8,0,17.9,3.9,24.2,11.5c4.2,5.2,8.6,10.3,13,15.5l2.8,3.4c0.3,0.3,0.7,0.5,1.1,0.5
		c0.4,0,0.8-0.2,1.1-0.5l26.8-31.8l5.9,4.7l-1.4,2c-0.2,0.3-0.4,0.7-0.8,1.2c-0.6,0.9-1.2,1.9-2,2.9l-7,8.3
		c-12.5,15-25.4,30.4-38.3,45.7c-3.8,4.5-8.3,6.9-13.1,6.9c-4.6,0-8.9-2.2-12.5-6.4c-12-14.1-24.1-28.6-35.8-42.6l-10.6-12.7
		c-0.6-0.7-1-1.5-1.5-2.4c0,0-0.1-0.2-0.1-0.2c-0.2-0.4-0.5-0.9-0.8-1.4l-2.2-3.7l4.3-0.3C333.7,181.1,334.3,181.1,335,181z"/>
	<path class="st0" d="M353.7,200.5c10.5,12.6,21.4,25.6,32.4,38.6c1.9,2.3,4.1,3.5,6.3,3.6c1.7,0,3.4-0.8,4.9-2.4
		c4.7-5.1,9.1-10.4,13.7-15.9l3.6-4.4c0.4-0.5,0.4-1.3,0-1.8c-1.3-1.5-2.5-3-3.7-4.5l-0.3-0.4c-5.1-6.2-9.8-12-15.1-17.4
		c-3.3-3.4-7.5-5.8-10.6-5.9c-10.5-0.6-21.1-0.5-32.2-0.4l-5.2,0c-0.5,0-1,0.3-1.3,0.8c-0.2,0.5-0.2,1.1,0.2,1.5L353.7,200.5z
		 M352.6,192.2c11.1-0.1,21.6-0.2,32.1,0.4c2.4,0.1,6,2.3,8.7,5.1c5.2,5.4,9.9,11.2,14.9,17.3l0.3,0.4c1,1.2,2,2.4,3,3.7l-2.9,3.5
		c-4.6,5.5-8.9,10.8-13.6,15.8c-0.9,1-1.9,1.5-2.8,1.5c0,0,0,0,0,0c-1.2,0-2.7-1-4.1-2.6c0,0,0,0,0,0c-11-12.9-21.9-25.9-32.4-38.5
		l-5.4-6.4L352.6,192.2z"/>
	<path class="st0" d="M412.1,351.5c-2.9-3.4-5.6-6.7-8.4-10c-5.1-6.1-8.7-9.8-11.4-9.8c-2.7,0-6.4,3.7-11.5,9.8
		c-9,10.8-18.1,21.5-27.4,32.7l-0.5,0.6l-6.6,7.8c-0.4,0.4-0.4,1-0.2,1.5c0.2,0.5,0.7,0.8,1.3,0.8l4.9,0c4,0,7.9,0.1,11.7,0.1
		c6.6,0,13.1-0.1,19.6-0.4c3.5-0.1,7.8-2,10.1-4.4c5.8-6,11.3-12.5,16.7-18.9c1.4-1.7,2.8-3.4,4.2-5c0.4-0.5,0.5-1.3,0-1.8
		L412.1,351.5z M408.2,359.6c-5.3,6.3-10.7,12.8-16.5,18.7c-1.8,1.9-5.4,3.4-8.2,3.6c-10.2,0.4-20.4,0.4-31.1,0.3l-1.9,0l5.1-6.1
		c9.3-11.1,18.4-21.9,27.4-32.7c6.1-7.3,8.4-8.8,9.3-8.8c0.9,0,3.2,1.5,9.2,8.8c2.7,3.3,5.5,6.6,8.4,10l1.8,2.1
		C410.5,356.8,409.3,358.2,408.2,359.6z"/>
	<path class="st0" d="M448.6,398.5c0,0,0.1,0,0.1,0c0.3,0,0.7-0.1,0.9-0.3l8-6.9c0.6-0.5,0.7-1.3,0.2-1.9l-3.2-4.4
		c-0.8-1.1-1.6-2.2-2.4-3.2c0,0,0,0,0,0l-2-2.4c-13.9-16.6-27.8-33.2-41.7-49.8c-5-6-10.5-9-16.2-9c-5.6,0-11,3-16,8.9
		c-14.3,16.9-28.7,34.1-41.4,49.3l-3.2,3.8c-0.9,1-1.5,2.1-2.3,3.4c-0.3,0.5-0.6,1-1,1.6l-3.7,5.9c-0.3,0.4-0.3,1-0.1,1.4
		s0.7,0.7,1.2,0.8l9.4,0.6c1.5,0.1,2.9,0.2,4.3,0.2c3.9,0,7.8,0,11.7,0l1.6,0c8.2,0,16.7-0.1,25,0.1c12.2,0.2,21.7-4.3,29.2-13.7
		c4-5,8.2-9.9,12.2-14.7l1.5-1.8l26.8,31.7C447.8,398.3,448.2,398.5,448.6,398.5z M420.8,362.7c-0.4,0-0.8,0.2-1.1,0.5l-2.6,3.1
		c-4.1,4.8-8.3,9.7-12.3,14.8c-6.9,8.7-15.7,12.8-26.9,12.6c-8.3-0.2-16.8-0.1-25-0.1l-1.6,0c-3.9,0-7.8,0-11.7,0
		c-1.3,0-2.6-0.1-4.1-0.2l-7-0.5l2.4-3.8c0.4-0.6,0.7-1.2,1.1-1.9c0.6-1.1,1.2-2,1.9-2.9l3.2-3.8c12.7-15.2,27.1-32.4,41.4-49.3
		c4.4-5.2,9.1-7.9,13.8-7.9c4.8,0,9.5,2.7,14,8c13.9,16.6,27.8,33.2,41.7,49.8l2,2.4c0.8,1,1.6,2,2.3,3.1l2.4,3.3l-5.9,5.1
		l-26.9-31.8C421.6,362.9,421.2,362.7,420.8,362.7z"/>
	<path class="st0" d="M323.4,346.7c12-14.4,24.5-29.3,36.6-44.2c7.6-9.3,7.3-22-0.8-31.7c-14.3-17.1-28.8-34.4-42.9-51.1l-1.7-2
		c-1.1-1.3-2.2-2.3-3.2-3.1l-0.2-0.2c-0.3-0.2-0.6-0.5-0.8-0.7l-2.7-2.5c-0.5-0.5-1.3-0.5-1.9,0l-7,6c-0.6,0.5-0.7,1.3-0.2,1.9
		l2.2,3.1c0.3,0.4,0.6,0.8,0.8,1.2l0.2,0.2c0.8,1.2,1.7,2.4,2.7,3.7c8.9,10.7,17.9,21.4,26.8,32l15.8,18.9c5.8,6.9,5.8,10.9,0,17.8
		c-5.9,7.1-11.8,14.3-17.7,21.4c-8.5,10.2-17,20.4-25.4,30.7c-1.2,1.4-1.9,2.9-2.6,4.2c-0.2,0.4-0.4,0.9-0.7,1.3l-3.3,5.8
		c-0.2,0.4-0.2,1,0,1.4c0.2,0.4,0.7,0.7,1.2,0.7l6.7,0.3c0.2,0,0.5,0,0.7,0c3.2,0,5.7-1.1,7.5-3.3L323.4,346.7z M305.3,359.1
		l-4.4-0.2l2.1-3.8c0.3-0.5,0.5-0.9,0.8-1.5c0.6-1.2,1.2-2.5,2.2-3.7c8.5-10.2,16.9-20.4,25.4-30.7c5.9-7.1,11.8-14.2,17.7-21.4
		c6.6-8,6.6-13.6-0.1-21.5l-15.8-18.9c-8.9-10.7-17.9-21.3-26.8-32c-0.9-1.1-1.7-2.3-2.5-3.4l-0.2-0.2c-0.3-0.4-0.6-0.8-0.9-1.3
		l-1.4-2l5.1-4.4l1.8,1.6c0.3,0.3,0.6,0.5,0.9,0.8l0.3,0.2c0.9,0.8,1.9,1.6,2.8,2.7l1.7,2c14.1,16.7,28.6,34,42.9,51.1
		c7.1,8.6,7.5,19.9,0.8,28.1c-12.1,14.9-24.6,29.8-36.6,44.2l-9.9,11.9C309.9,358.5,307.9,359.2,305.3,359.1z"/>
</g>
</svg>
