<svg version="1.1" id="Layer_1" xmlns="http://www.w3.org/2000/svg" x="0" y="0" viewBox="0 0 600 600" xml:space="preserve"><style>.st0{fill:#f6f6f6}</style><path class="st0" d="M546.6 165.6l-.1-.1v.2zM466.8 71l-.6.5h1.2zM231.7 311.1l-10.6-12.6c-5-5.9-9.9-11.8-14.9-17.8-2.2-2.6-2.2-2.6 0-5.1 3.8-4.5 7.6-9.1 11.4-13.6 4.6-5.4 9.1-10.9 13.6-16.3.5-.6.9-1.3 1.4-1.9.2-.3.4-.6.7-1l1.9-2.6-3.1-.8c-.3-.1-.6-.1-.8-.2-.5-.1-.9-.3-1.4-.3h-4.7c-7.8 0-15.9 0-23.8.1-1.8 0-3.6 1.3-4.6 2.5-7.9 9.3-16.1 19.1-25.1 29.9-3.7 4.5-3.7 9.2 0 13.7 8.9 10.7 16.9 20.3 25.1 29.9 1.2 1.4 3.3 2.4 5.2 2.5 6.7.3 13.5.4 20 .6l5.1.1h10.1l-3.9-5c-.7-.9-1.1-1.5-1.6-2.1zm-8.6.3c-7.4 0-14.3 0-21.4-.1-.1-.1-.4-.3-.8-.8-9.1-10.8-17.1-20.3-24.5-29.2-2-2.4-2-4 0-6.4 9.5-11.4 17.3-20.7 24.5-29.2.4-.4.9-.8 1.1-.8 6.7-.1 13.3-.1 20.4-.1h1.8c-3.9 4.6-7.7 9.2-11.6 13.8-3.7 4.4-7.4 8.8-11.1 13.3-3.8 4.6-3.8 7.7 0 12.3 5 6 10 12 15.1 18l7.6 9.1h-1.1zM121.7 225.2c.3.5.5 1 .9 1.4l5.5 6.6c6.3 7.5 12.7 15.3 19.2 22.8 2.1 2.4 4.5 3.7 7.2 3.7s5.3-1.4 7.5-3.9c6.8-8.1 13.7-16.3 20.4-24.3l3.7-4.4c.5-.5.8-1.1 1.1-1.6.1-.2.2-.4.4-.6l1.1-1.7-4.2-3.4-14.7 17.5-1.5-1.8c-2.4-2.8-4.7-5.5-6.9-8.2-3.5-4.2-8-6.4-13.4-6.4h-21.4c-.7 0-1.4.1-2.2.1-.4 0-.8.1-1.2.1l-3.5.2 1.8 3c-.1.3.1.6.2.9zm11.5 1.7c6-.1 11.7-.1 17.4.2 1.4.1 3.6 1.3 5.1 2.9 2.8 2.9 5.3 6 8 9.2.7.9 1.4 1.7 2.2 2.6-.6.8-1.3 1.5-1.9 2.3-2.5 3-4.8 5.7-7.3 8.4-.6.7-1.3 1.1-2 1.1-.9 0-1.9-.6-2.7-1.6-5.7-6.7-11.3-13.4-17.2-20.5l-3.9-4.7c.7.1 1.5.1 2.3.1zM154.6 296.7c-2.8 0-5.4 1.5-7.9 4.5-7.4 8.7-14.7 17.5-22 26.2l-1.7 2c-.4.5-.7 1-1.1 1.6-.2.3-.4.6-.6 1l-2 3.1 3.7.2c.5 0 .9.1 1.3.1.9.1 1.5.1 2.2.1h6.9c4.4 0 9 0 13.5.1 6.2.1 11.1-2.2 14.9-7 2.1-2.6 4.2-5.2 6.5-7.8.5-.5.9-1.1 1.4-1.6l14.8 17.5 4.3-3.7-1.7-2.3c-.4-.6-.8-1.1-1.3-1.7l-.6-.8c-7.5-9-15.1-18-22.6-27-2.5-3-5.2-4.5-8-4.5zm10.6 16.9l.7.9c-.8.9-1.5 1.8-2.3 2.7-2.8 3.4-5.7 6.8-8.8 10-1.1 1.1-3.2 2-4.9 2.1-5.5.2-11 .2-16.9.2h-2.3l3.5-4.2c5.1-6 9.9-11.9 14.8-17.7 1.4-1.6 4.2-5 5.5-5 1.4 0 4.2 3.3 5.5 5 1.7 1.9 3.4 3.9 5.2 6zM121.7 294.8c-4.5 5.4-9 10.9-13.5 16.3-.6.7-.9 1.4-1.3 2.1-.1.2-.2.5-.4.7l-1.7 3.1 3.5.2h.3c1.5 0 2.6-.5 3.4-1.5l5.3-6.3c6.4-7.7 13-15.6 19.5-23.5 3.8-4.6 3.6-11-.4-15.9-7.6-9.1-15.3-18.3-22.8-27.2l-.9-1.1c-.5-.6-1.1-1.1-1.6-1.5-.2-.2-.4-.3-.6-.5l-1.4-1.3-3.7 3.2 1.2 1.6c.2.3.4.5.5.8.4.6.9 1.3 1.4 1.9 4.7 5.7 9.5 11.4 14.3 17l8.4 10.1c3.3 3.9 3.3 6.5 0 10.5-3.2 3.7-6.4 7.5-9.5 11.3zM286.1 124.5c6.5 7.8 12.4 14.8 18.4 21.9.9 1 2.4 1.7 3.8 1.8 4.9.2 9.9.3 14.7.4l3.7.1h7.4l-2.9-3.7c-.5-.6-.8-1-1.1-1.4l-7.7-9.2c-3.6-4.3-7.3-8.7-10.9-13-1.6-1.9-1.6-1.9 0-3.8 2.8-3.3 5.6-6.6 8.4-10 3.3-4 6.7-7.9 10-11.9.4-.4.7-.9 1-1.4.2-.2.3-.5.5-.7l1.4-1.9-2.3-.6c-.2-.1-.4-.1-.6-.2-.3-.1-.7-.2-1.1-.2h-20.9c-1.3 0-2.6.9-3.4 1.8-5.8 6.8-11.8 14-18.4 21.9-2.7 3.4-2.7 6.8 0 10.1zm3.5-7.3c7-8.3 12.7-15.1 17.9-21.3.3-.3.7-.6.8-.6 4.9-.1 9.8-.1 14.9-.1h1.3c-2.8 3.4-5.7 6.7-8.5 10.1-2.7 3.2-5.4 6.5-8.1 9.7-2.8 3.3-2.8 5.6 0 9 3.7 4.4 7.3 8.8 11 13.1l5.6 6.6H308c-.1-.1-.3-.2-.6-.6-6.7-7.9-12.5-14.9-17.9-21.4-1.4-1.6-1.4-2.8.1-4.5zM249.6 80.7c.2.4.4.7.7 1l4 4.8c4.6 5.5 9.3 11.2 14 16.7 1.5 1.8 3.3 2.7 5.3 2.7s3.9-1 5.5-2.9c5-5.9 10-11.9 14.9-17.8l2.7-3.2c.3-.4.6-.8.8-1.2.1-.1.2-.3.3-.4l.8-1.2-3.1-2.5-10.8 12.8-1.1-1.3-5.1-6c-2.6-3.1-5.9-4.7-9.8-4.7H253c-.5 0-1 0-1.6.1-.3 0-.6 0-.9.1l-2.6.2 1.3 2.2c.2.2.3.4.4.6zM258 82c4.4 0 8.6-.1 12.7.2 1.1.1 2.6.9 3.8 2.1 2 2.1 3.9 4.4 5.8 6.8.5.6 1 1.3 1.6 1.9-.5.6-.9 1.1-1.4 1.7-1.8 2.2-3.5 4.2-5.3 6.2-.5.5-1 .8-1.5.8-.6 0-1.4-.4-2-1.2-4.2-4.9-8.3-9.8-12.6-15l-2.8-3.4c.5-.1 1.1-.1 1.7-.1zM268 161.5c4.5.1 8.1-1.6 10.9-5.1 1.5-1.9 3.1-3.8 4.8-5.7.3-.4.7-.8 1-1.2l10.8 12.8 3.1-2.7-1.3-1.7-.9-1.2-.5-.6c-5.5-6.6-11-13.2-16.6-19.7-1.9-2.2-3.8-3.3-5.9-3.3-2 0-4 1.1-5.8 3.3-5.4 6.4-10.7 12.8-16.1 19.2l-1.2 1.5c-.3.4-.5.8-.8 1.2-.1.2-.3.4-.4.7l-1.4 2.3 2.7.2c.4 0 .7 0 1 .1.6 0 1.1.1 1.6.1h5c3.4-.3 6.8-.3 10-.2zm-10.1-4.5h-1.7l2.6-3c3.7-4.4 7.3-8.7 10.9-13 1-1.2 3-3.6 4-3.6s3 2.4 4 3.6c1.2 1.5 2.4 2.9 3.7 4.4l.5.6c-.6.7-1.1 1.3-1.7 2-2.1 2.5-4.2 5-6.5 7.3-.8.8-2.3 1.5-3.6 1.5-3.9.2-7.9.2-12.2.2zM260.3 113.5c-5.5-6.7-11.2-13.4-16.7-19.9l-.7-.8c-.4-.4-.8-.8-1.2-1.1-.1-.1-.3-.2-.4-.4l-1-1-2.7 2.4.8 1.2c.1.2.3.4.4.6.3.5.6.9 1 1.4 3.5 4.2 7 8.3 10.4 12.5l6.2 7.4c2.4 2.9 2.4 4.7 0 7.7-2.3 2.8-4.6 5.5-6.9 8.3-3.3 4-6.6 7.9-9.9 11.9-.4.5-.7 1.1-.9 1.5-.1.2-.2.4-.3.5l-1.3 2.3 2.6.1h.2c1.1 0 1.9-.4 2.5-1.1l3.9-4.6c4.7-5.6 9.5-11.4 14.2-17.2 2.9-3.5 2.8-8.1-.2-11.7zM336.7 506.4l-6.4-7.7c-3-3.6-6-7.2-9.1-10.8-1.3-1.6-1.3-1.6 0-3.1 2.3-2.8 4.6-5.5 7-8.3 2.8-3.3 5.5-6.6 8.3-9.9l.9-1.2c.1-.2.3-.4.4-.6l1.1-1.6-1.9-.5c-.2 0-.3-.1-.5-.1-.3-.1-.5-.2-.9-.2h-17.4c-1.1 0-2.2.8-2.8 1.5-4.8 5.7-9.8 11.6-15.3 18.2-2.3 2.7-2.3 5.6 0 8.4 5.4 6.5 10.3 12.3 15.3 18.2.7.8 2 1.5 3.2 1.5 4.1.2 8.2.3 12.2.4l3.1.1h6.1l-2.4-3.1c-.4-.5-.6-.8-.9-1.2zm-5.3.2h-13.1l-.5-.5c-5.5-6.6-10.4-12.4-14.9-17.8-1.2-1.5-1.2-2.4 0-3.9 5.8-7 10.5-12.6 14.9-17.8.2-.3.6-.5.7-.5 4.1-.1 8.1-.1 12.4 0h1.1c-2.4 2.8-4.7 5.6-7.1 8.4-2.3 2.7-4.5 5.4-6.8 8.1-2.3 2.8-2.3 4.7 0 7.5 3.1 3.6 6.1 7.3 9.2 10.9l4.6 5.5h-.5zM298 460.3c-1.4-1.7-2.8-3.4-4.2-5-2.1-2.6-4.9-3.9-8.2-3.9h-13.1c-.4 0-.8 0-1.3.1-.2 0-.5 0-.7.1l-2.1.1 1.1 1.9c.1.2.2.4.3.5.2.3.3.6.6.9l3.4 4c3.8 4.6 7.8 9.3 11.7 13.9 1.3 1.5 2.8 2.2 4.4 2.2 1.7 0 3.3-.8 4.6-2.4 4.2-4.9 8.4-9.9 12.4-14.8l2.3-2.7c.3-.3.5-.7.7-1 .1-.1.2-.2.2-.4l.7-1-2.6-2.1-9 10.6-1.2-1zm-2.6 5.4c-1.5 1.8-2.9 3.5-4.4 5.1-.4.4-.8.6-1.2.6-.5 0-1.1-.4-1.7-1-3.5-4.1-6.9-8.2-10.5-12.5l-2.4-2.8h1.5c3.7 0 7.1-.1 10.6.1.9 0 2.2.8 3.1 1.8 1.7 1.8 3.2 3.6 4.9 5.6.4.5.9 1.1 1.3 1.6l-1.2 1.5zM308.7 517.3l-.4-.5c-4.6-5.5-9.2-11-13.8-16.4-1.5-1.8-3.2-2.8-4.9-2.8-1.7 0-3.3.9-4.8 2.7-4.5 5.3-8.9 10.6-13.4 16l-1 1.2c-.3.3-.4.6-.7 1-.1.2-.2.4-.4.6l-1.2 1.9 2.2.1c.3 0 .6 0 .8.1.5 0 .9.1 1.4.1H284.9c3.7.1 6.8-1.3 9.1-4.3 1.3-1.6 2.6-3.1 4-4.8.3-.3.6-.7.8-1l9 10.7 2.6-2.2-1-1.4c-.1-.3-.4-.7-.7-1zm-13.5-7.2c-1.7 2.1-3.5 4.2-5.4 6.1-.7.7-2 1.2-3 1.3-3.4.1-6.7.1-10.3.1h-1.4l2.1-2.5c3.1-3.7 6.1-7.2 9-10.8.8-1 2.5-3 3.4-3 .8 0 2.5 2 3.3 3 1 1.2 2 2.4 3.1 3.7l.4.5c-.3.5-.7 1.1-1.2 1.6zM278.6 481.4c-4.6-5.5-9.3-11.1-13.9-16.6l-.6-.7c-.3-.4-.7-.7-1-.9-.1-.1-.2-.2-.4-.3l-.9-.8-2.3 2 .7 1c.1.2.2.3.3.5.3.4.5.8.8 1.2 2.9 3.5 5.8 6.9 8.7 10.4l5.1 6.1c2 2.4 2 4 0 6.4l-5.7 6.9c-2.7 3.3-5.5 6.6-8.2 9.9-.3.4-.6.9-.8 1.3-.1.1-.2.3-.2.4l-1.1 1.9 2.2.1h.2c.9 0 1.6-.3 2.1-.9l3.2-3.9c3.9-4.7 7.9-9.5 11.9-14.3 2.5-2.9 2.4-6.8-.1-9.7zM531 526.6c-3.4-4.1-3.4-6.8-.1-10.8 5.5-6.6 10.7-12.8 15.6-18.6v-15.8c-7.6 9-15.4 18.4-23.6 28.2-5.3 6.4-6.1 13.2-2.4 19.7h12.8c-.8-.9-1.6-1.8-2.3-2.7zM519.8 451.7l-2.6-3c-4-4.7-7.9-9.3-11.7-14-5.9-7.2-13.6-10.8-22.8-10.8h-36.4c-1.2 0-2.4.1-3.7.2-.6.1-1.3.1-2.1.2l-6 .4 3 5.2c.3.5.6 1 .8 1.4.5.9.9 1.7 1.5 2.4l9.4 11.2c10.6 12.7 21.6 25.9 32.6 38.7 3.5 4.1 7.7 6.3 12.2 6.3 4.7 0 9.1-2.3 12.8-6.7 11.6-13.7 23.3-27.7 34.6-41.2l5.3-6.3v-12.2l-1.7-1.4-25.2 29.6zm-9.9 11.9c-4.2 5-8.1 9.7-12.3 14.3-1.1 1.2-2.3 1.8-3.5 1.8h-.1c-1.5 0-3.1-1-4.6-2.8-9.7-11.4-19.2-22.8-29.3-34.8l-6.6-7.9h4.2c10.2-.1 19.9-.2 29.5.3 2.5.1 6.1 2.2 8.7 5 4.7 4.9 9 10.1 13.6 15.7 1.2 1.5 2.4 3 3.7 4.5-1.2 1.3-2.3 2.6-3.3 3.9zM463.1 507.3c-12.8-15.4-26-31.1-38.7-46.2l-1.5-1.8c-.9-1-1.9-1.9-2.7-2.6-.3-.3-.7-.6-1-.9l-2.4-2.2-6.3 5.5 2 2.8c.3.4.6.9.9 1.3.7 1.1 1.5 2.1 2.3 3.2 8.1 9.6 16.1 19.3 24.2 28.9l14.3 17.1c5.4 6.4 5.6 10.7.6 17h12.1c2.9-7.2 1.7-15.5-3.8-22.1zM529.4 117.7c6 7.2 11.6 13.8 17.1 20.4v-9.3c-4.3-5.2-8.4-10.1-12.3-14.8-2-2.4-2-4 0-6.4 4.5-5.4 8.6-10.2 12.4-14.8v-9.3C541 90 535.4 96.7 529.4 104c-3.8 4.4-3.7 9.2 0 13.7zM512.3 92.3c2.8 0 5.4-1.4 7.5-3.9 4.7-5.6 9.5-11.2 14.2-16.9h-12.8c.1.1.2.3.3.4.7.9 1.4 1.7 2.2 2.6-.6.8-1.3 1.5-1.9 2.3-2.5 3-4.8 5.7-7.3 8.4-.6.7-1.3 1.1-2 1.1-.9 0-1.9-.6-2.7-1.6-3.7-4.4-7.4-8.7-11.1-13.2h-7.8l14.4 17.1c1.8 2.4 4.3 3.7 7 3.7zM543.6 161.6l-.6-.8c-7.5-9-15.1-18-22.6-27-2.5-3-5.2-4.5-8-4.5s-5.4 1.5-7.9 4.5c-7.4 8.7-14.7 17.5-22 26.2l-1.7 2c-.4.5-.7 1-1.1 1.6-.2.3-.4.6-.6 1l-2 3.1 3.7.2c.5 0 .9.1 1.3.1.9.1 1.5.1 2.2.1h6.9c4.4 0 9 0 13.5.1 6.2.1 11.1-2.2 14.9-7 2.1-2.6 4.2-5.2 6.5-7.8.5-.5.9-1.1 1.4-1.6l14.8 17.5 4.2-3.6v-.2l-1.6-2.2c-.4-.6-.8-1.2-1.3-1.7zm-22.2-11.8c-2.8 3.4-5.7 6.8-8.8 10-1.1 1.1-3.2 2-4.9 2.1-5.5.2-11 .2-16.9.2h-2.3l3.5-4.2c5.1-6 9.9-11.9 14.8-17.7 1.4-1.6 4.2-5 5.5-5 1.4 0 4.2 3.3 5.5 5 1.7 2 3.3 4 5.1 6.1l.7.9c-.7.8-1.5 1.7-2.2 2.6zM464.2 75.8c.2.3.4.5.5.8.4.6.9 1.3 1.4 1.9 4.7 5.7 9.5 11.4 14.3 17l8.4 10.1c3.3 3.9 3.3 6.5 0 10.5-3.1 3.8-6.3 7.6-9.4 11.4-4.5 5.4-9 10.9-13.5 16.3-.6.7-.9 1.4-1.3 2.1-.1.2-.2.5-.4.7l-1.7 3.1 3.5.2h.3c1.5 0 2.6-.5 3.4-1.5l5.3-6.3c6.4-7.7 13-15.6 19.5-23.5 3.8-4.6 3.6-11-.4-15.9-7.6-9.1-15.3-18.3-22.8-27.2l-.9-1.1c-.5-.6-1.1-1.1-1.6-1.5-.2-.2-.4-.3-.6-.5l-.8-.8h-1.2l-3.1 2.7 1.1 1.5zM186.6 496.6c-.6-.8-1.1-1.4-1.6-2l-10.8-12.9c-5.1-6.1-10.2-12.1-15.2-18.2-1.7-2.1-1.7-2.1 0-4.1 3.9-4.7 7.8-9.3 11.7-14l14-16.7c.5-.6 1-1.3 1.5-2l2.6-3.7c.2-.2.2-.5.1-.8-.1-.3-.3-.5-.6-.5l-3.2-.8c-.3-.1-.5-.1-.8-.2-.5-.1-1-.3-1.7-.3h-4.8c-8 0-16.2 0-24.4.1-2.2 0-4.3 1.5-5.4 2.8-8.1 9.6-16.5 19.6-25.7 30.6-4.1 4.9-4.1 10.3 0 15.2 9.1 10.9 17.3 20.8 25.8 30.6 1.4 1.6 3.8 2.7 5.9 2.8 6.7.3 13.5.4 20.2.6l5.6.1h10.4c.3 0 .6-.2.8-.5.2-.3.1-.7-.1-.9l-4.3-5.2zm-5.1 4.8h-1.8l-5.6-.1c-6.6-.1-13.4-.3-20.1-.6-1.7-.1-3.6-1-4.7-2.2-8.4-9.8-16.6-19.7-25.8-30.6-3.6-4.3-3.6-8.7 0-12.9 9.2-11.1 17.6-21.1 25.7-30.6.9-1.1 2.6-2.2 4.1-2.2 4.9-.1 9.8-.1 14.6-.1h14.5c.4 0 .8.1 1.4.3.2.1.4.1.7.2l1.9.5-1.9 2.7c-.4.7-.9 1.3-1.4 1.9l-14 16.7c-3.9 4.7-7.8 9.3-11.7 14-2.5 2.9-2.5 3.4 0 6.4 5.1 6.1 10.2 12.1 15.3 18.2l10.8 12.9c.5.6.9 1.2 1.6 2l2.9 3.7-6.5-.2z"/><path class="st0" d="M169.5 485.5c-5.1-6.1-10.3-12.3-15.4-18.4-3.7-4.4-3.7-7.1 0-11.5 3.8-4.5 7.6-9.1 11.4-13.6l11.9-14.2c.2-.3.3-.6.1-.9-.1-.3-.5-.5-.8-.5h-1.9c-6.8 0-13.9 0-21.1.1-.4.1-1.2.6-1.6 1.1-7.3 8.6-15.3 18.1-25.1 29.9-2.3 2.8-2.3 4.8 0 7.7 7.6 9.1 15.8 18.9 25.1 29.9.3.4.7.7.9.9.2.1.3.2.5.2 5.3.1 10.5.1 15.9.1H176.5c.3 0 .7-.2.8-.5.1-.3.1-.7-.1-.9l-7.7-9.4zm4.9 9c-7 0-13.7 0-20.5-.1-.1-.1-.2-.2-.4-.5-9.3-11-17.5-20.8-25.1-29.9-1.8-2.2-1.8-3.3 0-5.4 9.8-11.7 17.8-21.2 25.1-29.9.2-.2.5-.4.6-.5 6.9-.1 13.9-.1 20.6-.1L164 440.9c-3.8 4.5-7.6 9.1-11.4 13.6-4.2 5-4.2 8.7 0 13.7 5.1 6.1 10.3 12.3 15.4 18.4l6.6 7.8h-.2zM70.4 406.6c.2.3.3.6.5.8l.8-.4-.8.4c.3.5.6 1.1 1 1.6l5.6 6.8c6 7.2 12.9 15.4 19.7 23.4 2.3 2.7 5.1 4.1 8.1 4.1 3.1 0 6-1.5 8.4-4.3 7-8.2 14-16.6 20.9-24.9l3.8-4.5c.5-.6.9-1.2 1.2-1.8.1-.2.2-.4.4-.6l1.1-1.7c.3-.4.2-.9-.2-1.2l-4.3-3.5c-.4-.3-.9-.2-1.2.1L120.9 418l-1-1.1c-2.4-2.8-4.7-5.6-7-8.3-3.8-4.6-8.6-6.9-14.6-6.9H76.4c-.7 0-1.5.1-2.3.1l-4.8.3c-.3 0-.6.2-.7.5-.1.3-.1.6 0 .9l1.8 3.1zm3.9-3c.8-.1 1.5-.1 2.2-.1h22.1c5.3 0 9.7 2.1 13.1 6.2 2.3 2.8 4.6 5.5 7.1 8.5l1.5 1.8c.3.4 1 .4 1.4 0l14.5-17.2 3 2.4-.7 1c-.1.2-.3.4-.4.7-.3.5-.6 1-1.1 1.5l-3.9 4.7c-6.8 8.1-13.8 16.5-20.7 24.7-2.1 2.4-4.5 3.7-7 3.7s-4.8-1.2-6.7-3.5c-6.8-7.9-13.6-16.1-19.6-23.4l-5.7-6.8c-.3-.4-.5-.8-.8-1.3-.1-.2-.3-.5-.5-.9l-1.1-1.9 3.3-.1z"/><path class="st0" d="M84.2 414.2c6.1 7.3 11.8 14.1 17.7 21 1.1 1.3 2.3 2 3.5 2 1 0 1.9-.5 2.7-1.4 2.5-2.7 4.9-5.6 7.5-8.7l2-2.4c.3-.3.3-.8 0-1.1-.7-.8-1.4-1.7-2.1-2.5l-.2-.3c-2.7-3.3-5.3-6.5-8.2-9.4-1.8-1.9-4.2-3.2-5.9-3.3-5.8-.3-11.6-.3-17.8-.2h-2.5c-.3 0-.7.2-.8.5-.1.3-.1.7.1.9l4 4.9zm-.6-4.4c6.1-.1 11.8-.1 17.6.2 1.3.1 3.2 1.2 4.7 2.7 2.8 2.9 5.4 6 8.1 9.4l.2.2c.5.6 1.1 1.3 1.6 1.9l-1.6 2c-2.5 3-4.8 5.8-7.3 8.5-.5.5-1 .8-1.5.8-.6 0-1.4-.5-2.1-1.4-5.9-6.9-11.6-13.7-17.6-21l-2.8-3.3h.7zM111.7 490.9c-2.8-3.3-4.8-5.4-6.3-5.4s-3.5 2.1-6.3 5.4c-5 6-10 12-15.2 18.1l-3.6 4.3c-.2.3-.3.6-.1.9.1.3.5.5.8.5h9.1c3.6 0 7.1 0 10.7-.2 1.9-.1 4.3-1.1 5.6-2.4 3.2-3.3 6.2-6.8 9.1-10.3l2.3-2.7c.3-.3.3-.8 0-1.1l-6.1-7.1zm2.2 9.8c-2.9 3.4-5.9 7-9 10.2-1 1-2.9 1.8-4.4 1.9-5.6.2-11.3.2-17.3.2h-.5l2.4-2.8c5.2-6.2 10.2-12.2 15.2-18.2 3.3-3.9 4.5-4.7 5-4.7.4 0 1.5.6 4.9 4.8l5.5 6.5-1.8 2.1z"/><path class="st0" d="M139.4 514.6c-.4-.6-.9-1.2-1.3-1.8l-2.6-3.1c-7.1-8.5-14.2-16.9-21.2-25.3-5.5-6.6-12.2-6.6-17.7-.1-7.5 8.9-15 17.9-22.5 26.9l-1.7 2.1c-.5.6-.8 1.2-1.2 1.8-.2.3-.4.6-.6 1l-2 3.2c-.2.3-.2.6 0 .9.1.3.4.5.7.5l5.1.3c.9.1 1.6.1 2.4.1H84c4.5 0 9.1 0 13.6.1 6.7.1 11.9-2.3 16-7.5 2.1-2.7 4.3-5.3 6.7-8l.7-.9 14.5 17.1c.2.2.4.3.6.3h.1c.2 0 .4-.1.6-.2l4.4-3.7c.4-.3.4-.8.1-1.2l-1.9-2.5zm-3.2 5.4l-14.6-17.3c-.2-.2-.4-.3-.7-.3-.3 0-.5.1-.7.3l-1.4 1.7c-2.2 2.6-4.5 5.3-6.7 8-3.7 4.7-8.4 6.9-14.6 6.8-4.5-.1-9.2-.1-13.8-.1H78.3c-1.2 0-2.3 0-3.9-.1l-3.6-.2 1.2-1.9c.2-.4.4-.7.6-1 .4-.6.6-1.1 1-1.6l1.7-2.1c7.5-9 15-17.9 22.5-26.9 4.8-5.7 10.2-5.7 15 .1 7.1 8.4 14.2 16.9 21.2 25.3l2.6 3.1c.4.5.8 1.1 1.3 1.7l1.3 1.7-3 2.8zM87.4 452.4c-7.7-9.3-15.7-18.7-23.4-27.9l-.9-1.1c-.6-.7-1.2-1.2-1.8-1.7-.2-.1-.3-.3-.5-.4l-1.5-1.3c-.3-.3-.8-.3-1.2 0l-3.8 3.3c-.3.3-.4.8-.1 1.2l1.7 2.4c.5.7.9 1.3 1.5 2 4.9 5.8 9.7 11.6 14.6 17.4l8.6 10.3c3.1 3.7 3.1 5.9 0 9.6-2.9 3.5-5.7 6.9-8.6 10.4l-1.1 1.3c-4.6 5.6-9.2 11.1-13.8 16.7-.6.8-1.1 1.6-1.5 2.4l-.3.6-1.8 3.2c-.2.3-.2.6 0 .9.2.3.4.4.7.5l3.6.2h.4c1.8 0 3.2-.6 4.2-1.8l5.8-6.9c6.4-7.7 13.1-15.7 19.6-23.6 4.2-5.4 4-12.4-.4-17.7zm-20.5 39.9l-5.8 6.9c-.7.8-1.6 1.2-2.8 1.2l-2.5-.1 1.1-1.9c.1-.2.2-.5.4-.8.3-.6.7-1.4 1.2-2 4.6-5.6 9.2-11.1 13.8-16.7l1.1-1.3c2.9-3.5 5.7-6.9 8.6-10.4 3.6-4.4 3.6-7.5 0-11.9L73.4 445c-4.9-5.8-9.7-11.6-14.6-17.4-.5-.6-.9-1.2-1.5-2l-1.2-1.6 2.6-2.3.9.8c.2.2.4.3.6.6.5.4 1 .9 1.5 1.5l.9 1.1c7.7 9.1 15.6 18.5 23.4 27.8 3.9 4.6 4 10.7.4 15.1-6.4 8-13.1 16-19.5 23.7zM541.3 351.8c-1.1-1.5-2-2.5-2.8-3.6l-19.9-23.7c-9.3-11.1-18.7-22.3-28-33.4-1.6-2-2.7-3.3-2.7-4 0-.7 1.1-2 2.7-3.9 7.2-8.5 14.3-17.1 21.5-25.6l2.7-3.2c7.7-9.1 15.3-18.3 23-27.4 1-1.2 1.8-2.4 2.7-3.7.4-.6.8-1.2 1.3-1.9l3.5-5c.3-.4.3-.9.2-1.3s-.5-.8-1-.9l-5.9-1.4c-.5-.1-.9-.2-1.4-.4-.9-.3-1.9-.5-3.1-.5h-8.9c-13.9 0-29.6-.1-44.8.1-4 .1-7.8 2.8-9.8 5.1-14.8 17.4-30.2 35.8-47.2 56.2-7.4 8.9-7.4 18.7.1 27.6 16.7 20 31.8 38 47.3 56.2 2.5 2.9 6.8 5 10.8 5.1 12.6.5 25.4.8 37.7 1.1l9.5.2h17.9v-5.2l-5.2-6.6-.2.1zm-9.3 9.1h-3.3l-9.5-.2c-12.3-.3-25.1-.6-37.7-1.1-3.1-.1-6.8-1.9-8.7-4.1-15.5-18.2-30.6-36.2-47.3-56.2-6.7-8-6.7-16.1-.1-24 17-20.4 32.5-38.8 47.2-56.2 1.7-2 4.8-4.1 7.6-4.1 9-.1 18.1-.2 27-.2H533.9c.8 0 1.5.2 2.5.5.4.1.8.2 1.3.4l3.9.9-2.3 3.2c-.5.7-.9 1.3-1.3 1.9-.8 1.2-1.6 2.4-2.6 3.5-7.6 9.1-15.3 18.3-23 27.4l-2.7 3.2c-7.2 8.5-14.3 17.1-21.5 25.6-4.5 5.3-4.5 6.1.1 11.5 9.3 11.1 18.7 22.3 28 33.4l28.3 34.5-12.6.1z"/><path class="st0" d="M504.7 325.6c-7.7-9.2-15.5-18.4-23.2-27.7-6.9-8.2-6.9-13.2-.1-21.3 7-8.3 13.9-16.6 20.9-24.9 7.3-8.7 14.5-17.3 21.8-26 .4-.4.4-1 .2-1.5s-.7-.8-1.3-.8h-3.4c-13.2 0-25.6 0-38.3.1h-.3c-.8.2-2.1 1.1-2.8 2-13.5 15.9-28.2 33.4-46.1 54.9-4.2 5-4.1 8.7.1 13.8 13.7 16.4 28.7 34.4 46 54.9.6.7 1.2 1.3 1.7 1.6.2.2.5.3.8.3 9.7.1 19.2.1 29 .1H523c.6 0 1.1-.3 1.3-.8s.2-1.1-.2-1.5l-19.4-23.2zm-23.4 22.5l-.9-.9c-17.3-20.5-32.4-38.5-46-54.9-3.4-4-3.4-6.2-.1-10.2 17.9-21.5 32.6-38.9 46.1-54.9.4-.5 1-.9 1.2-1 12.6-.2 25-.2 38-.1h.4l-19.8 23.7c-7 8.3-13.9 16.6-20.9 24.9-7.7 9.2-7.7 15.7.1 25 7.7 9.2 15.5 18.5 23.2 27.7l17.5 20.8c-13.4 0-26 0-38.8-.1zM326.2 178.8c-.5 0-.9.3-1.2.8-.2.4-.2 1 0 1.4l3.3 5.7c.3.5.5.9.7 1.3l.1.2c.5 1 1 2 1.9 2.9l10.6 12.7c11.7 14 23.8 28.5 35.8 42.6 4.1 4.9 9.2 7.4 14.7 7.4 5.6 0 10.9-2.7 15.2-7.9 12.9-15.2 25.8-30.7 38.3-45.7l7-8.3c.9-1.1 1.6-2.2 2.3-3.4.2-.3.4-.6.6-1l2.1-3.1c.4-.6.3-1.4-.3-1.9l-8-6.3c-.6-.5-1.5-.4-2 .2L420.9 208l-1.8-2.1c-4.4-5.2-8.7-10.3-13-15.5-6.8-8.3-15.7-12.5-26.6-12.5H339.4c-1.4 0-2.7.1-4.3.2h-.4c-.6 0-1.2.1-1.9.1l-6.6.6zm8.8 2.2h.4c1.5-.1 2.8-.2 4-.2h40.4c9.8 0 17.9 3.9 24.2 11.5 4.2 5.2 8.6 10.3 13 15.5l2.8 3.4c.3.3.7.5 1.1.5.4 0 .8-.2 1.1-.5l26.8-31.8 5.9 4.7-1.4 2c-.2.3-.4.7-.8 1.2-.6.9-1.2 1.9-2 2.9l-7 8.3c-12.5 15-25.4 30.4-38.3 45.7-3.8 4.5-8.3 6.9-13.1 6.9-4.6 0-8.9-2.2-12.5-6.4-12-14.1-24.1-28.6-35.8-42.6l-10.6-12.7c-.6-.7-1-1.5-1.5-2.4l-.1-.2c-.2-.4-.5-.9-.8-1.4l-2.2-3.7 4.3-.3c.8-.3 1.4-.3 2.1-.4z"/><path class="st0" d="M353.7 200.5c10.5 12.6 21.4 25.6 32.4 38.6 1.9 2.3 4.1 3.5 6.3 3.6 1.7 0 3.4-.8 4.9-2.4 4.7-5.1 9.1-10.4 13.7-15.9l3.6-4.4c.4-.5.4-1.3 0-1.8-1.3-1.5-2.5-3-3.7-4.5l-.3-.4c-5.1-6.2-9.8-12-15.1-17.4-3.3-3.4-7.5-5.8-10.6-5.9-10.5-.6-21.1-.5-32.2-.4h-5.2c-.5 0-1 .3-1.3.8-.2.5-.2 1.1.2 1.5l7.3 8.6zm-1.1-8.3c11.1-.1 21.6-.2 32.1.4 2.4.1 6 2.3 8.7 5.1 5.2 5.4 9.9 11.2 14.9 17.3l.3.4c1 1.2 2 2.4 3 3.7l-2.9 3.5c-4.6 5.5-8.9 10.8-13.6 15.8-.9 1-1.9 1.5-2.8 1.5-1.2 0-2.7-1-4.1-2.6-11-12.9-21.9-25.9-32.4-38.5l-5.4-6.4 2.2-.2zM412.1 351.5c-2.9-3.4-5.6-6.7-8.4-10-5.1-6.1-8.7-9.8-11.4-9.8-2.7 0-6.4 3.7-11.5 9.8-9 10.8-18.1 21.5-27.4 32.7l-.5.6-6.6 7.8c-.4.4-.4 1-.2 1.5s.7.8 1.3.8h4.9c4 0 7.9.1 11.7.1 6.6 0 13.1-.1 19.6-.4 3.5-.1 7.8-2 10.1-4.4 5.8-6 11.3-12.5 16.7-18.9 1.4-1.7 2.8-3.4 4.2-5 .4-.5.5-1.3 0-1.8l-2.5-3zm-3.9 8.1c-5.3 6.3-10.7 12.8-16.5 18.7-1.8 1.9-5.4 3.4-8.2 3.6-10.2.4-20.4.4-31.1.3h-1.9l5.1-6.1c9.3-11.1 18.4-21.9 27.4-32.7 6.1-7.3 8.4-8.8 9.3-8.8.9 0 3.2 1.5 9.2 8.8 2.7 3.3 5.5 6.6 8.4 10l1.8 2.1c-1.2 1.3-2.4 2.7-3.5 4.1z"/><path class="st0" d="M448.6 398.5h.1c.3 0 .7-.1.9-.3l8-6.9c.6-.5.7-1.3.2-1.9l-3.2-4.4c-.8-1.1-1.6-2.2-2.4-3.2l-2-2.4-41.7-49.8c-5-6-10.5-9-16.2-9-5.6 0-11 3-16 8.9-14.3 16.9-28.7 34.1-41.4 49.3l-3.2 3.8c-.9 1-1.5 2.1-2.3 3.4-.3.5-.6 1-1 1.6l-3.7 5.9c-.3.4-.3 1-.1 1.4s.7.7 1.2.8l9.4.6c1.5.1 2.9.2 4.3.2H352.8c8.2 0 16.7-.1 25 .1 12.2.2 21.7-4.3 29.2-13.7 4-5 8.2-9.9 12.2-14.7l1.5-1.8 26.8 31.7c.3.2.7.4 1.1.4zm-27.8-35.8c-.4 0-.8.2-1.1.5l-2.6 3.1c-4.1 4.8-8.3 9.7-12.3 14.8-6.9 8.7-15.7 12.8-26.9 12.6-8.3-.2-16.8-.1-25-.1H339.6c-1.3 0-2.6-.1-4.1-.2l-7-.5 2.4-3.8c.4-.6.7-1.2 1.1-1.9.6-1.1 1.2-2 1.9-2.9l3.2-3.8c12.7-15.2 27.1-32.4 41.4-49.3 4.4-5.2 9.1-7.9 13.8-7.9 4.8 0 9.5 2.7 14 8l41.7 49.8 2 2.4c.8 1 1.6 2 2.3 3.1l2.4 3.3-5.9 5.1-26.9-31.8c-.3-.3-.7-.5-1.1-.5zM323.4 346.7c12-14.4 24.5-29.3 36.6-44.2 7.6-9.3 7.3-22-.8-31.7-14.3-17.1-28.8-34.4-42.9-51.1l-1.7-2c-1.1-1.3-2.2-2.3-3.2-3.1l-.2-.2c-.3-.2-.6-.5-.8-.7l-2.7-2.5c-.5-.5-1.3-.5-1.9 0l-7 6c-.6.5-.7 1.3-.2 1.9l2.2 3.1c.3.4.6.8.8 1.2l.2.2c.8 1.2 1.7 2.4 2.7 3.7 8.9 10.7 17.9 21.4 26.8 32l15.8 18.9c5.8 6.9 5.8 10.9 0 17.8-5.9 7.1-11.8 14.3-17.7 21.4-8.5 10.2-17 20.4-25.4 30.7-1.2 1.4-1.9 2.9-2.6 4.2-.2.4-.4.9-.7 1.3l-3.3 5.8c-.2.4-.2 1 0 1.4.2.4.7.7 1.2.7l6.7.3h.7c3.2 0 5.7-1.1 7.5-3.3l9.9-11.8zm-18.1 12.4l-4.4-.2 2.1-3.8c.3-.5.5-.9.8-1.5.6-1.2 1.2-2.5 2.2-3.7 8.5-10.2 16.9-20.4 25.4-30.7 5.9-7.1 11.8-14.2 17.7-21.4 6.6-8 6.6-13.6-.1-21.5l-15.8-18.9c-8.9-10.7-17.9-21.3-26.8-32-.9-1.1-1.7-2.3-2.5-3.4l-.2-.2c-.3-.4-.6-.8-.9-1.3l-1.4-2 5.1-4.4 1.8 1.6c.3.3.6.5.9.8l.3.2c.9.8 1.9 1.6 2.8 2.7l1.7 2c14.1 16.7 28.6 34 42.9 51.1 7.1 8.6 7.5 19.9.8 28.1-12.1 14.9-24.6 29.8-36.6 44.2l-9.9 11.9c-1.3 1.8-3.3 2.5-5.9 2.4z"/></svg>