<!-- Generator: Adobe Illustrator 25.2.0, SVG Export Plug-In -->
<svg version="1.1" xmlns="http://www.w3.org/2000/svg" xmlns:xlink="http://www.w3.org/1999/xlink" x="0px" y="0px" width="212.7px"
height="167.6px" viewBox="0 0 212.7 167.6" style="overflow:visible;enable-background:new 0 0 212.7 167.6;"
xml:space="preserve">
<style type="text/css">
.st0{fill:#FFFFFF;}
</style>
<defs>
</defs>
<g>
<path class="st0" d="M15.2,114.5c3.1,0,5.5,1.8,5.5,6.1v16.6h5.5v-16.8c0-3.9,2.7-5.8,5.6-5.8c3.1,0,5.5,1.8,5.5,6.1v16.6h5.5
v-17.4c0-3.1-0.8-5.6-2.9-7.7c-1.6-1.6-4.1-2.5-6.9-2.5c-3.6,0-6.3,1.3-8.5,4c-1.7-2.6-4.3-4-7.7-4c-2.7,0-5.4,1.1-7.2,3.1V110H4.1
v27.2h5.5v-16.6C9.6,116.4,12.2,114.5,15.2,114.5z"/>
<path class="st0" d="M72.9,137.2V110h-5.5v16.6c0,4.2-2.6,6.1-5.6,6.1c-3.1,0-5.5-1.8-5.5-6.1V110h-5.5v17.4c0,3.1,0.6,5.6,2.7,7.7
c1.6,1.6,3.9,2.5,6.7,2.5c2.7,0,5.4-1,7.2-3.1v2.7H72.9z"/>
<path class="st0" d="M86.9,129.4V99h-5.5v30.7c0,4,2.3,7.5,7.5,7.5h3.4v-4.7h-2.4C87.7,132.5,86.9,131.4,86.9,129.4z"/>
<path class="st0" d="M104.4,102.2H99v8.3h-3.1v4.2H99v15c0,3.9,2.4,7.6,7.5,7.6h3.3v-4.7h-2.3c-2,0-3-1.2-3-3.2v-14.7h5.3v-4.2
h-5.3V102.2z"/>
<rect x="116.7" y="110" class="st0" width="5.5" height="27.2"/>
<rect x="116.5" y="98.8" class="st0" width="5.8" height="5.8"/>
<path class="st0" d="M136.3,134.4c2,2.4,4.2,3.1,7.1,3.1c2.7,0,5.1-0.9,6.6-2.4c2.7-2.7,3.1-7.4,3.1-11.5s-0.3-8.7-3.1-11.5
c-1.5-1.5-3.9-2.4-6.7-2.4c-2.9,0-5.1,0.8-7.2,3.2V110h-5.4v38.2h5.5V134.4z M142,114.5c4.9,0,5.6,4.2,5.6,9s-0.7,9.1-5.6,9.1
c-4.9,0-5.7-4.2-5.7-9.1S137,114.5,142,114.5z"/>
<path class="st0" d="M165.8,129.4V99h-5.5v30.7c0,4,2.3,7.5,7.5,7.5h3.4v-4.7h-2.4C166.5,132.5,165.8,131.4,165.8,129.4z"/>
<polygon class="st0" points="189.3,123.3 198.2,110 191.6,110 186.3,118.8 181,110 174.4,110 183.3,123.3 174,137.2 180.6,137.2
186.3,127.9 192,137.2 198.6,137.2 "/>
<path class="st0" d="M206.8,134.8c-3.3,0-5.9,2.6-5.9,5.9c0,3.3,2.6,5.9,5.9,5.9s5.9-2.6,5.9-5.9
C212.7,137.4,210.1,134.8,206.8,134.8z M206.8,145.5c-2.6,0-4.7-2.1-4.7-4.8s2.1-4.8,4.7-4.8c2.6,0,4.7,2.1,4.7,4.8
S209.5,145.5,206.8,145.5z"/>
<path class="st0" d="M209.2,139.5c0-1.1-0.8-2-2.1-2h-2.4v6.4h1.2v-2.5h0.8l1.3,2.5h1.3l-1.4-2.7
C208.7,140.9,209.2,140.4,209.2,139.5z M207,140.4h-1.1v-1.9h1.1c0.6,0,1,0.4,1,1S207.6,140.4,207,140.4z"/>
<path class="st0" d="M101.6,46.1c6.1,7.3,11.6,13.9,17.2,20.5c0.9,1.1,2.5,1.9,4,1.9c4.6,0.2,9.2,0.3,13.7,0.4l3.5,0.1
c0.4,0,0.8,0,1.2,0c0.3,0,0.7,0,1,0l6,0l-3.5-4.5c-0.4-0.6-0.7-1-1.1-1.3l-6.9-8.2c-3.5-4.2-7-8.4-10.5-12.6
c-0.6-0.8-0.9-1.2-1-1.3c0.1-0.2,0.4-0.6,1-1.3c2.6-3.1,5.2-6.2,7.8-9.3c3.1-3.7,6.2-7.4,9.4-11.2c0.4-0.4,0.7-0.9,1-1.4
c0.1-0.2,0.3-0.4,0.5-0.7l1.8-2.6l-3.1-0.7c-0.2-0.1-0.4-0.1-0.5-0.1c-0.3-0.1-0.7-0.2-1.2-0.2l-3.2,0c-5.4,0-10.9,0-16.3,0
c-1.5,0-2.9,1-3.7,1.9c-5.4,6.3-11,13-17.2,20.5C98.8,39.1,98.8,42.8,101.6,46.1z M105.9,39.2c6.5-7.7,11.8-14.1,16.8-20
c0.1-0.1,0.3-0.3,0.4-0.3c4.5-0.1,8.9-0.1,13.6,0c-2.3,2.8-4.7,5.6-7.1,8.4l-7.6,9c-2.8,3.4-2.8,5.9,0,9.3c3.4,4,6.8,8.1,10.1,12.1
l4.5,5.3c-4.7,0-9.2,0-13.7,0c-0.1-0.1-0.2-0.2-0.3-0.3c-6.4-7.6-11.7-13.9-16.8-20C104.7,41.3,104.7,40.6,105.9,39.2z"/>
<path class="st0" d="M67.4,4.9C67.6,5.3,67.7,5.7,68,6l3.8,4.5C76.1,15.7,80.6,21,85,26.2c1.5,1.8,3.4,2.8,5.4,2.8c0,0,0,0,0,0
c2.1,0,4.1-1,5.7-2.9c4.7-5.5,9.4-11.2,13.9-16.6l2.6-3.1c0.3-0.4,0.6-0.8,0.8-1.2c0.1-0.1,0.2-0.3,0.2-0.4l1.1-1.7L110.8,0
l-10,11.9l-0.5-0.6c-1.6-1.9-3.2-3.8-4.7-5.6C93,2.5,89.8,1,85.8,1c-2.9,0-5.8,0-8.7,0c-2,0-4,0-6,0c-0.5,0-1,0-1.6,0.1
c-0.3,0-0.5,0-0.8,0.1l-3.5,0.2l1.8,3C67.2,4.6,67.3,4.8,67.4,4.9z M75.8,6.5c4.1,0,8-0.1,11.8,0.1c0.8,0,2.1,0.8,3.1,1.8
c1.9,2,3.6,4.1,5.4,6.3c0.4,0.5,0.7,0.9,1.1,1.4c-0.3,0.4-0.6,0.8-1,1.2c-1.7,2-3.3,3.9-5,5.8c-0.3,0.3-0.6,0.5-0.9,0.5
c-0.4,0-0.9-0.3-1.4-0.9c-3.9-4.6-7.7-9.1-11.7-14l-1.8-2.2C75.6,6.5,75.7,6.5,75.8,6.5z"/>
<path class="st0" d="M113.3,76.5c-0.3-0.4-0.6-0.8-0.9-1.2l-0.4-0.5c-5.2-6.2-10.3-12.3-15.5-18.5c-1.9-2.2-3.9-3.3-6-3.4
c0,0,0,0,0,0c-2.1,0-4.1,1.1-5.9,3.3c-5,5.9-10,11.9-15,17.8l-1.2,1.5c-0.3,0.4-0.6,0.8-0.8,1.2c-0.1,0.2-0.2,0.4-0.4,0.6l-1.9,3.1
l3.6,0.2c0.3,0,0.6,0,0.9,0.1c0.6,0,1.1,0.1,1.6,0.1c1.6,0,3.2,0,4.7,0c3,0,6.2,0,9.2,0c4.5,0.1,8-1.6,10.8-5
c1.4-1.8,2.9-3.5,4.4-5.3c0.1-0.2,0.3-0.4,0.4-0.5l10.1,11.9l3.9-3.3L113.3,76.5z M96.1,67.2c-2,2.4-3.9,4.7-6,6.8
c-0.6,0.6-1.9,1.2-2.9,1.2c-3.7,0.2-7.5,0.1-11.5,0.1c-0.1,0-0.1,0-0.2,0l1.6-1.9c3.4-4.1,6.7-8,10-12c2.2-2.6,3-3.1,3.3-3.2
c0.3,0,1.1,0.6,3.3,3.1l3.6,4.3C96.9,66.2,96.5,66.7,96.1,67.2z"/>
<path class="st0" d="M67.4,51.8c-3.1,3.7-6.2,7.5-9.3,11.2c-0.4,0.5-0.7,1.1-1,1.6c-0.1,0.2-0.2,0.3-0.2,0.5l-1.7,3.1l3.5,0.2
c0.1,0,0.2,0,0.3,0c1.2,0,2.2-0.4,2.9-1.2l3.7-4.4c4.4-5.2,8.9-10.7,13.3-16c2.8-3.4,2.6-8.2-0.3-11.7
c-5.2-6.3-10.6-12.6-15.7-18.8l-0.5-0.6c-0.4-0.5-0.8-0.8-1.2-1.1c-0.1-0.1-0.3-0.2-0.4-0.3l-1.4-1.3l-3.5,3l1.1,1.6
c0.1,0.2,0.2,0.3,0.4,0.5c0.3,0.4,0.6,0.9,1,1.3c3.3,4,6.6,7.9,9.9,11.8l5.6,6.7c2.1,2.5,2.1,3.8,0,6.3
C71.7,46.7,69.6,49.2,67.4,51.8z"/>
<path class="st0" d="M3.8,154.3c1.4,0,2.3,0.9,2.6,2.2h1.2c-0.4-2.1-1.8-3.3-3.8-3.3c-1.1,0-2.1,0.4-2.8,1.1c-1,1-1,2.1-1,4.4
s0,3.4,1,4.4c0.7,0.7,1.7,1.1,2.8,1.1c2,0,3.4-1.2,3.8-3.3H6.5c-0.3,1.3-1.3,2.2-2.6,2.2c-0.7,0-1.4-0.3-1.9-0.8
c-0.7-0.7-0.8-1.5-0.8-3.8s0.1-3,0.8-3.8C2.4,154.5,3.1,154.3,3.8,154.3z"/>
<path class="st0" d="M12.7,156.6c-0.9,0-1.6,0.3-2.2,0.9c-0.8,0.8-0.9,1.8-0.9,3s0.2,2.2,0.9,3c0.5,0.5,1.2,0.9,2.2,0.9
s1.6-0.3,2.2-0.9c0.8-0.8,0.9-1.8,0.9-3s-0.2-2.2-0.9-3C14.4,156.9,13.6,156.6,12.7,156.6z M14.1,162.8c-0.4,0.4-0.8,0.6-1.4,0.6
s-1-0.2-1.4-0.6c-0.6-0.6-0.6-1.5-0.6-2.3c0-0.8,0.1-1.8,0.6-2.3c0.4-0.4,0.8-0.6,1.4-0.6s1,0.2,1.4,0.6c0.6,0.6,0.6,1.5,0.6,2.3
C14.7,161.3,14.7,162.3,14.1,162.8z"/>
<path class="st0" d="M26.2,156.6c-1.1,0-1.9,0.4-2.5,1.3c-0.5-0.8-1.3-1.3-2.3-1.3c-0.8,0-1.6,0.3-2.1,0.9v-0.8h-1.1v7.6h1.1v-4.7
c0-1.3,0.8-2,1.9-2c1.1,0,1.9,0.7,1.9,2v4.7h1.1v-4.8c0-1.2,0.8-1.9,1.9-1.9c1.1,0,1.9,0.7,1.9,2v4.7H29v-4.8
c0-0.9-0.3-1.6-0.8-2.1C27.7,156.9,27.1,156.6,26.2,156.6z"/>
<path class="st0" d="M35,156.6c-0.8,0-1.5,0.2-2.1,1v-0.9h-1.1v11h1.1v-4.3c0.6,0.8,1.3,1,2.1,1c0.8,0,1.4-0.3,1.8-0.7
c0.8-0.8,0.9-2,0.9-3.2s-0.2-2.4-0.9-3.2C36.4,156.9,35.7,156.6,35,156.6z M34.7,163.4c-1.6,0-1.9-1.4-1.9-2.9
c0-1.5,0.3-2.9,1.9-2.9c1.6,0,1.9,1.4,1.9,2.9C36.6,161.9,36.4,163.4,34.7,163.4z"/>
<path class="st0" d="M41.2,157.6v-0.9h-1.1v7.6h1.1v-4.6c0-1.2,0.7-2,1.8-2c0.6,0,0.9,0.1,1.3,0.6l0.8-0.8
c-0.5-0.5-1.1-0.7-1.8-0.7C42.5,156.6,41.6,157,41.2,157.6z"/>
<path class="st0" d="M48.8,156.6c-1.2,0-2,0.2-2.7,1.1l0.8,0.7c0.4-0.6,0.9-0.9,1.9-0.9c1.4,0,1.9,0.6,1.9,1.7v0.7h-2.3
c-1.7,0-2.6,0.9-2.6,2.2c0,0.6,0.2,1.2,0.6,1.5c0.5,0.5,1.1,0.7,2.1,0.7c1,0,1.6-0.2,2.2-0.8v0.7h1.1v-5.1
C51.8,157.5,50.8,156.6,48.8,156.6z M50.7,161.6c0,0.6-0.1,1.1-0.4,1.3c-0.5,0.5-1,0.5-1.7,0.5c-1.2,0-1.7-0.4-1.7-1.3
c0-0.9,0.6-1.3,1.7-1.3h2.1V161.6z"/>
<path class="st0" d="M61.1,156.6c-1.9,0-3.1,1.4-3.1,3.9c0,2.7,1.3,3.9,3.3,3.9c1.3,0,2-0.4,2.8-1.2l-0.8-0.7
c-0.6,0.6-1.1,0.9-2,0.9c-1.4,0-2.2-1-2.2-2.6h5.1v-0.5C64.2,158,63,156.6,61.1,156.6z M59.1,159.9c0-0.6,0.1-0.8,0.2-1.3
c0.3-0.7,1-1.1,1.8-1.1s1.5,0.4,1.8,1.1c0.2,0.4,0.2,0.6,0.2,1.3H59.1z"/>
<polygon class="st0" points="72.4,162.8 70.3,156.7 69.1,156.7 71.9,164.3 72.9,164.3 75.7,156.7 74.5,156.7 "/>
<path class="st0" d="M79.8,156.6c-1.9,0-3.1,1.4-3.1,3.9c0,2.7,1.3,3.9,3.3,3.9c1.3,0,2-0.4,2.8-1.2l-0.8-0.7
c-0.6,0.6-1.1,0.9-2,0.9c-1.4,0-2.2-1-2.2-2.6h5.1v-0.5C82.9,158,81.7,156.6,79.8,156.6z M77.8,159.9c0-0.6,0.1-0.8,0.2-1.3
c0.3-0.7,1-1.1,1.8-1.1c0.8,0,1.5,0.4,1.8,1.1c0.2,0.4,0.2,0.6,0.2,1.3H77.8z"/>
<path class="st0" d="M88.5,156.6c-0.8,0-1.6,0.3-2.1,0.9v-0.8h-1.1v7.6h1.1v-4.7c0-1.3,0.7-2,1.9-2s1.9,0.7,1.9,2v4.7h1.1v-4.8
c0-0.9-0.2-1.6-0.8-2.1C89.9,156.8,89.3,156.6,88.5,156.6z"/>
<path class="st0" d="M98.4,157.6c-0.6-0.8-1.3-1-2.1-1c-0.8,0-1.4,0.3-1.8,0.7c-0.8,0.8-0.9,2-0.9,3.2s0.2,2.4,0.9,3.2
c0.4,0.4,1.1,0.7,1.8,0.7c0.8,0,1.5-0.2,2.2-1v0.9h1.1v-11h-1.1V157.6z M96.5,163.4c-1.6,0-1.9-1.4-1.9-2.9c0-1.5,0.3-2.9,1.9-2.9
c1.6,0,1.9,1.4,1.9,2.9C98.4,161.9,98.2,163.4,96.5,163.4z"/>
<path class="st0" d="M104.7,156.6c-1.2,0-2,0.2-2.7,1.1l0.8,0.7c0.4-0.6,0.9-0.9,1.9-0.9c1.4,0,1.9,0.6,1.9,1.7v0.7h-2.3
c-1.7,0-2.6,0.9-2.6,2.2c0,0.6,0.2,1.2,0.6,1.5c0.5,0.5,1.1,0.7,2.1,0.7c1,0,1.6-0.2,2.2-0.8v0.7h1.1v-5.1
C107.7,157.5,106.7,156.6,104.7,156.6z M106.6,161.6c0,0.6-0.1,1.1-0.4,1.3c-0.5,0.5-1,0.5-1.7,0.5c-1.2,0-1.7-0.4-1.7-1.3
c0-0.9,0.6-1.3,1.7-1.3h2.1V161.6z"/>
<path class="st0" d="M118.7,157.6c-0.6-0.8-1.3-1-2.1-1c-0.8,0-1.4,0.3-1.8,0.7c-0.8,0.8-0.9,2-0.9,3.2s0.2,2.4,0.9,3.2
c0.4,0.4,1.1,0.7,1.8,0.7c0.8,0,1.5-0.2,2.2-1v0.9h1.1v-11h-1.1V157.6z M116.8,163.4c-1.6,0-1.9-1.4-1.9-2.9c0-1.5,0.3-2.9,1.9-2.9
c1.6,0,1.9,1.4,1.9,2.9C118.7,161.9,118.5,163.4,116.8,163.4z"/>
<path class="st0" d="M125.3,156.6c-1.9,0-3.1,1.4-3.1,3.9c0,2.7,1.3,3.9,3.3,3.9c1.3,0,2-0.4,2.8-1.2l-0.8-0.7
c-0.6,0.6-1.1,0.9-2,0.9c-1.4,0-2.2-1-2.2-2.6h5.1v-0.5C128.4,158,127.2,156.6,125.3,156.6z M123.3,159.9c0-0.6,0.1-0.8,0.2-1.3
c0.3-0.7,1-1.1,1.8-1.1s1.5,0.4,1.8,1.1c0.2,0.4,0.2,0.6,0.2,1.3H123.3z"/>
<path class="st0" d="M137.8,156.6c-0.8,0-1.5,0.2-2.1,1v-0.9h-1.1v11h1.1v-4.3c0.6,0.8,1.3,1,2.1,1c0.8,0,1.4-0.3,1.8-0.7
c0.8-0.8,0.9-2,0.9-3.2s-0.2-2.4-0.9-3.2C139.3,156.9,138.6,156.6,137.8,156.6z M137.6,163.4c-1.6,0-1.9-1.4-1.9-2.9
c0-1.5,0.3-2.9,1.9-2.9c1.6,0,1.9,1.4,1.9,2.9C139.5,161.9,139.3,163.4,137.6,163.4z"/>
<path class="st0" d="M144.1,157.6v-0.9H143v7.6h1.1v-4.6c0-1.2,0.7-2,1.8-2c0.6,0,0.9,0.1,1.3,0.6l0.8-0.8
c-0.5-0.5-1.1-0.7-1.8-0.7C145.3,156.6,144.5,157,144.1,157.6z"/>
<path class="st0" d="M151.6,156.6c-1.9,0-3.1,1.4-3.1,3.9c0,2.7,1.3,3.9,3.3,3.9c1.3,0,2-0.4,2.8-1.2l-0.8-0.7
c-0.6,0.6-1.1,0.9-2,0.9c-1.4,0-2.2-1-2.2-2.6h5.1v-0.5C154.7,158,153.6,156.6,151.6,156.6z M149.6,159.9c0-0.6,0.1-0.8,0.2-1.3
c0.3-0.7,1-1.1,1.8-1.1s1.5,0.4,1.8,1.1c0.2,0.4,0.2,0.6,0.2,1.3H149.6z"/>
<path class="st0" d="M160,157.6c0.7,0,1.2,0.2,1.7,0.8l0.8-0.7c-0.8-0.8-1.4-1.1-2.5-1.1c-1.9,0-3.4,1.3-3.4,3.9s1.4,3.9,3.4,3.9
c1,0,1.7-0.3,2.5-1.1l-0.8-0.7c-0.6,0.6-1,0.9-1.7,0.9c-0.7,0-1.4-0.3-1.8-0.9c-0.4-0.5-0.5-1.1-0.5-2s0.1-1.5,0.5-2
C158.7,157.9,159.3,157.6,160,157.6z"/>
<path class="st0" d="M166.8,156.6c-1.2,0-2,0.2-2.7,1.1l0.8,0.7c0.4-0.6,0.9-0.9,1.9-0.9c1.4,0,1.9,0.6,1.9,1.7v0.7h-2.3
c-1.7,0-2.6,0.9-2.6,2.2c0,0.6,0.2,1.2,0.6,1.5c0.5,0.5,1.1,0.7,2.1,0.7c1,0,1.6-0.2,2.2-0.8v0.7h1.1v-5.1
C169.9,157.5,168.9,156.6,166.8,156.6z M168.8,161.6c0,0.6-0.1,1.1-0.4,1.3c-0.5,0.5-1,0.5-1.7,0.5c-1.2,0-1.7-0.4-1.7-1.3
c0-0.9,0.6-1.3,1.7-1.3h2.1V161.6z"/>
<path class="st0" d="M173.9,154.4h-1.1v2.4h-1v0.8h1v4.6c0,1.1,0.6,2,1.9,2h0.8v-1h-0.6c-0.7,0-1-0.4-1-1.1v-4.6h1.6v-0.8h-1.6
V154.4z"/>
<path class="st0" d="M180.2,156.6c-0.9,0-1.6,0.3-2.2,0.9c-0.8,0.8-0.9,1.8-0.9,3s0.2,2.2,0.9,3c0.5,0.5,1.2,0.9,2.2,0.9
c0.9,0,1.6-0.3,2.2-0.9c0.8-0.8,0.9-1.8,0.9-3s-0.2-2.2-0.9-3C181.9,156.9,181.2,156.6,180.2,156.6z M181.6,162.8
c-0.4,0.4-0.8,0.6-1.4,0.6c-0.5,0-1-0.2-1.4-0.6c-0.6-0.6-0.6-1.5-0.6-2.3c0-0.8,0.1-1.8,0.6-2.3c0.4-0.4,0.8-0.6,1.4-0.6
c0.5,0,1,0.2,1.4,0.6c0.6,0.6,0.6,1.5,0.6,2.3C182.2,161.3,182.2,162.3,181.6,162.8z"/>
<polygon class="st0" points="182.2,152.8 180.8,152.8 179.5,155.1 180.5,155.1 "/>
<path class="st0" d="M186.8,157.6v-0.9h-1.1v7.6h1.1v-4.6c0-1.2,0.7-2,1.8-2c0.6,0,0.9,0.1,1.3,0.6l0.8-0.8
c-0.5-0.5-1.1-0.7-1.8-0.7C188.1,156.6,187.2,157,186.8,157.6z"/>
<rect x="192.2" y="156.7" class="st0" width="1.1" height="7.6"/>
<rect x="192.1" y="153.3" class="st0" width="1.2" height="1.2"/>
<path class="st0" d="M198.8,156.6c-0.9,0-1.6,0.3-2.2,0.9c-0.8,0.8-0.9,1.8-0.9,3s0.2,2.2,0.9,3c0.5,0.5,1.2,0.9,2.2,0.9
c0.9,0,1.6-0.3,2.2-0.9c0.8-0.8,0.9-1.8,0.9-3s-0.2-2.2-0.9-3C200.4,156.9,199.7,156.6,198.8,156.6z M200.2,162.8
c-0.4,0.4-0.8,0.6-1.4,0.6c-0.5,0-1-0.2-1.4-0.6c-0.6-0.6-0.6-1.5-0.6-2.3c0-0.8,0.1-1.8,0.6-2.3c0.4-0.4,0.8-0.6,1.4-0.6
c0.5,0,1,0.2,1.4,0.6c0.6,0.6,0.6,1.5,0.6,2.3C200.8,161.3,200.7,162.3,200.2,162.8z"/>
<path class="st0" d="M207.5,160l-1.2-0.1c-1-0.1-1.3-0.5-1.3-1.1c0-0.8,0.6-1.2,1.7-1.2c0.8,0,1.5,0.2,2,0.6l0.7-0.7
c-0.7-0.6-1.6-0.8-2.7-0.8c-1.6,0-2.8,0.8-2.8,2.2c0,1.2,0.8,1.9,2.3,2l1.2,0.1c0.9,0.1,1.3,0.4,1.3,1.1c0,0.9-0.8,1.3-2,1.3
c-0.9,0-1.8-0.2-2.4-0.9l-0.7,0.7c0.8,0.8,1.8,1.1,3.1,1.1c1.8,0,3.1-0.8,3.1-2.3C209.7,160.6,208.8,160.1,207.5,160z"/>
</g>
</svg>
