<?xml version="1.0" encoding="utf-8"?>
<!-- Generator: Adobe Illustrator 25.2.1, SVG Export Plug-In . SVG Version: 6.00 Build 0)  -->
<svg version="1.1" id="Layer_1" xmlns="http://www.w3.org/2000/svg" xmlns:xlink="http://www.w3.org/1999/xlink" x="0px" y="0px"
	 viewBox="0 0 434.6 344.7" style="enable-background:new 0 0 434.6 344.7;" xml:space="preserve">
<style type="text/css">
	.st0{fill:#FFFFFF;}
</style>
<g>
	<path class="st0" d="M32.9,231.1c6.2,0,11,3.7,11,12.2v33.4h11v-34c0-7.9,5.4-11.7,11.4-11.7c6.2,0,11,3.7,11,12.2v33.4h11v-35.1
		c0-6.2-1.6-11.4-5.8-15.5c-3.2-3.1-8.2-5-13.8-5c-7.2,0-12.8,2.6-17.2,8c-3.5-5.3-8.8-8-15.6-8c-5.5,0-10.9,2.2-14.6,6.2v-5.5H10.5
		v54.8h11v-33.4C21.5,234.9,26.7,231.1,32.9,231.1z"/>
	<path class="st0" d="M149.3,276.7v-54.8h-11v33.4c0,8.4-5.2,12.2-11.4,12.2c-6.2,0-11-3.7-11-12.2v-33.4h-11v35.1
		c0,6.2,1.3,11.4,5.5,15.5c3.2,3.1,7.9,5,13.5,5c5.5,0,10.8-2.1,14.6-6.2v5.5H149.3z"/>
	<path class="st0" d="M177.5,260.9v-61.2h-11v61.9c0,8.1,4.5,15.1,15,15.1h6.8v-9.4h-4.9C179.1,267.3,177.5,265.2,177.5,260.9z"/>
	<path class="st0" d="M212.8,206.2h-11v16.7h-6.3v8.4h6.3v30.2c0,7.9,4.8,15.3,15,15.3h6.6v-9.4h-4.5c-4.1,0-6.1-2.4-6.1-6.4v-29.6
		h10.6v-8.4h-10.6V206.2z"/>
	<rect x="237.5" y="221.9" class="st0" width="11" height="54.8"/>
	<rect x="237.2" y="199.4" class="st0" width="11.7" height="11.7"/>
	<path class="st0" d="M277.1,271.1c4,4.8,8.5,6.3,14.4,6.3c5.5,0,10.3-1.8,13.3-4.9c5.5-5.5,6.2-14.9,6.2-23.3s-0.6-17.6-6.2-23.2
		c-3-3-7.9-4.9-13.4-4.9c-6,0-10.4,1.5-14.5,6.5v-5.8H266v77h11V271.1z M288.5,231.1c10,0,11.4,8.4,11.4,18.2s-1.4,18.3-11.4,18.3
		s-11.5-8.5-11.5-18.3S278.6,231.1,288.5,231.1z"/>
	<path class="st0" d="M336.6,260.9v-61.2h-11v61.9c0,8.1,4.5,15.1,15,15.1h6.8v-9.4h-4.9C338.1,267.3,336.6,265.2,336.6,260.9z"/>
	<polygon class="st0" points="384.1,248.7 402,221.9 388.7,221.9 378,239.7 367.2,221.9 353.9,221.9 372,248.7 353.1,276.7 
		366.4,276.7 378,258 389.5,276.7 402.8,276.7 	"/>
	<path class="st0" d="M419.4,271.9c-6.6,0-11.9,5.3-11.9,11.9c0,6.6,5.3,11.9,11.9,11.9s11.9-5.3,11.9-11.9
		C431.3,277.2,425.9,271.9,419.4,271.9z M419.4,293.5c-5.3,0-9.5-4.3-9.5-9.7s4.2-9.7,9.5-9.7c5.3,0,9.5,4.3,9.5,9.7
		S424.7,293.5,419.4,293.5z"/>
	<path class="st0" d="M424.2,281.3c0-2.1-1.7-4-4.1-4h-4.8v12.9h2.4v-5.1h1.6l2.6,5.1h2.7l-2.9-5.4
		C423.1,284.3,424.2,283.1,424.2,281.3z M419.8,283.3h-2.2v-3.9h2.2c1.3,0,2.1,0.9,2.1,1.9S421,283.3,419.8,283.3z"/>
	<path class="st0" d="M207.2,93c12.2,14.6,23.3,27.8,34.7,41.3c1.9,2.2,5.1,3.7,8.1,3.9c9.2,0.4,18.6,0.6,27.7,0.8l7,0.2
		c0.8,0,1.6,0,2.5,0c0.6,0,1.3,0,2.1,0c0.9,0,2,0,3.2,0h9l-5.5-7.1c-0.6-0.8-1.2-1.5-1.6-2.1c-0.9-1.1-1.5-1.9-2.1-2.7
		c-4.7-5.7-9.5-11.3-14.2-17c-7-8.3-14-16.7-20.9-25c-1.3-1.6-1.8-2.3-2-2.7c0.2-0.4,0.7-1.1,2-2.6c5.3-6.4,10.7-12.7,16-19.1
		c6.2-7.4,12.4-14.8,18.6-22.2c0.7-0.9,1.4-1.8,2-2.8c0.3-0.4,0.6-0.9,0.9-1.4l3.7-5.3l-6.3-1.5c-0.4-0.1-0.8-0.2-1-0.3
		c-0.7-0.2-1.4-0.4-2.4-0.4l-6.4,0c-10.8,0-22-0.1-33.1,0.1c-3.1,0-5.9,2.1-7.4,3.9c-10.8,12.8-22.2,26.3-34.7,41.3
		C201.5,78.9,201.6,86.3,207.2,93z M264,54.4c-5.3,6.3-10.5,12.5-15.8,18.8c-5.7,6.8-5.7,11.9,0.1,18.7c6.7,8,13.4,16,20.1,23.9
		l9.4,11.2c-9.5,0-18.5,0-27.7-0.1c-0.1-0.1-0.3-0.3-0.5-0.6c-12.6-14.9-23.7-28.1-33.8-40.3c-2.4-2.9-2.4-4.3-0.1-7.1
		c13.1-15.7,23.9-28.5,33.8-40.3c0.2-0.3,0.6-0.5,0.8-0.6c9-0.1,18-0.1,27.4-0.1C273.2,43.5,268.6,49,264,54.4z"/>
	<path class="st0" d="M138,10c0.4,0.8,0.8,1.5,1.4,2.2l7.7,9.2c8.6,10.3,17.6,21,26.5,31.5c3.1,3.6,7,5.6,11,5.6c0,0,0,0,0,0
		c4.1,0,8.2-2.1,11.4-5.9c9.3-11,18.6-22.2,27.7-33l5.6-6.7c0.7-0.8,1.2-1.7,1.7-2.4c0.2-0.3,0.3-0.5,0.5-0.8l2.2-3.3L225.7,0
		l-20.2,23.9c-0.4-0.4-0.7-0.9-1.1-1.3c-3.3-3.9-6.4-7.6-9.5-11.3C189.9,5.1,183.3,2,175.4,2c-0.1,0-0.1,0-0.2,0
		c-5.8,0-11.6,0-17.5,0c-4,0-8,0-12,0c-1.1,0-2.1,0.1-3.2,0.2c-0.5,0-1.1,0.1-1.7,0.1l-7,0.5l3.6,6.1C137.7,9.3,137.9,9.7,138,10z
		 M154.5,13.1c0.2,0,0.4,0,0.6,0c8.3-0.1,16.1-0.1,23.9,0.3c1.6,0.1,4.3,1.6,6.2,3.6c3.8,3.9,7.3,8.2,10.9,12.7
		c0.8,0.9,1.5,1.8,2.3,2.8c-0.7,0.8-1.3,1.6-2,2.4c-3.4,4.1-6.6,7.9-10,11.6c-0.6,0.7-1.3,1-1.9,1c-0.8,0-1.8-0.7-2.8-1.8
		c-7.8-9.2-15.5-18.4-23.6-28.1C157,16.1,155.8,14.6,154.5,13.1z"/>
	<path class="st0" d="M231.3,155.2c-0.2-0.3-0.5-0.6-0.7-0.9c-0.6-0.8-1.1-1.6-1.8-2.4l-0.7-0.9c-10.5-12.5-20.9-25-31.4-37.5
		c-3.8-4.5-7.8-6.8-12.1-6.8c0,0,0,0,0,0c-4.2,0-8.3,2.2-12,6.6c-10.1,12-20.4,24.2-30.3,36.1l-2.5,2.9c-0.7,0.8-1.1,1.6-1.6,2.4
		c-0.2,0.4-0.5,0.8-0.8,1.3l-3.9,6.2l7.4,0.5c0.7,0,1.3,0.1,1.8,0.1c1.1,0.1,2.1,0.2,3.2,0.2c3.2,0,6.3,0,9.5,0
		c6.1,0,12.4-0.1,18.6,0.1c8.9,0.2,16.2-3.2,21.7-10.2c2.9-3.6,5.8-7.1,9-10.8c0.3-0.3,0.6-0.7,0.9-1l20.3,24l7.9-6.7L231.3,155.2z
		 M158.2,147.6c6.7-8,13.2-15.8,19.8-23.6c4.3-5.2,6-6.3,6.6-6.4c0.6,0,2.2,1.2,6.6,6.4c2.1,2.5,4.2,5,6.4,7.6l0.9,1.1
		c-0.8,1-1.6,1.9-2.4,2.9c-4.1,4.8-7.9,9.4-12.1,13.7c-1.3,1.3-3.9,2.4-5.8,2.5c-7.6,0.3-15.2,0.3-23.2,0.2c-0.1,0-0.2,0-0.4,0
		L158.2,147.6z"/>
	<path class="st0" d="M138,104.8c-6.2,7.4-12.3,14.9-18.5,22.3c-0.9,1.1-1.5,2.2-1.9,3.2c-0.2,0.3-0.3,0.6-0.5,0.9l-3.5,6.2l7.1,0.3
		c0.2,0,0.3,0,0.5,0c2.4,0,4.4-0.8,5.8-2.5l7.4-8.8c8.8-10.6,17.9-21.5,26.8-32.4c5.6-6.8,5.3-16.5-0.6-23.7
		c-10.4-12.5-21-25.1-31.3-37.3l-1.4-1.7c-0.8-0.9-1.6-1.6-2.4-2.3c-0.3-0.2-0.5-0.5-0.8-0.7l-2.9-2.6l-7,6l2.3,3.2
		c0.2,0.3,0.5,0.7,0.7,1.1c0.6,0.9,1.2,1.8,2,2.7c6.6,7.9,13.2,15.8,19.8,23.7l11.5,13.8c4.2,5,4.2,7.7,0,12.7
		C146.7,94.2,142.3,99.5,138,104.8z"/>
	<path class="st0" d="M9.9,311.2c2.8,0,4.7,1.8,5.2,4.5h2.4c-0.7-4.2-3.7-6.6-7.7-6.6c-2.2,0-4.2,0.8-5.6,2.3
		c-2.1,2.1-2.1,4.3-2.1,8.9s0,6.9,2.1,8.9c1.5,1.5,3.5,2.3,5.6,2.3c3.9,0,7-2.4,7.7-6.6h-2.4c-0.6,2.7-2.5,4.5-5.3,4.5
		c-1.5,0-2.9-0.6-3.8-1.6c-1.4-1.4-1.6-2.9-1.6-7.6c0-4.6,0.2-6.1,1.6-7.6C7,311.7,8.4,311.2,9.9,311.2z"/>
	<path class="st0" d="M27.8,315.9c-1.9,0-3.3,0.7-4.4,1.7c-1.6,1.6-1.9,3.7-1.9,6.1s0.3,4.5,1.9,6.1c1.1,1.1,2.5,1.7,4.4,1.7
		s3.3-0.7,4.4-1.7c1.6-1.6,1.9-3.7,1.9-6.1s-0.3-4.5-1.9-6.1C31.1,316.6,29.7,315.9,27.8,315.9z M30.6,328.4
		c-0.7,0.7-1.7,1.1-2.8,1.1s-2-0.4-2.8-1.1c-1.1-1.1-1.2-3-1.2-4.7c0-1.7,0.1-3.6,1.2-4.7c0.7-0.7,1.7-1.1,2.8-1.1s2.1,0.4,2.8,1.1
		c1.1,1.1,1.2,3,1.2,4.7C31.8,325.4,31.7,327.3,30.6,328.4z"/>
	<path class="st0" d="M55.1,315.9c-2.1,0-3.8,0.9-5,2.5c-0.9-1.7-2.6-2.5-4.7-2.5c-1.7,0-3.2,0.6-4.3,1.9v-1.7h-2.2v15.3h2.2v-9.4
		c0-2.7,1.5-4.1,3.8-4.1c2.3,0,3.8,1.4,3.8,4.1v9.4h2.2v-9.7c0-2.4,1.6-3.8,3.8-3.8c2.3,0,3.8,1.4,3.8,4.1v9.4h2.2v-9.8
		c0-1.8-0.6-3.2-1.6-4.3C58.1,316.4,56.7,315.9,55.1,315.9z"/>
	<path class="st0" d="M72.7,315.9c-1.7,0-3.1,0.4-4.3,2v-1.8h-2.2v22.1h2.2v-8.6c1.2,1.6,2.6,2,4.3,2c1.6,0,2.9-0.5,3.7-1.3
		c1.6-1.6,1.9-4.1,1.9-6.5s-0.3-4.9-1.9-6.5C75.6,316.4,74.2,315.9,72.7,315.9z M72.2,329.5c-3.3,0-3.8-2.9-3.8-5.8
		c0-3,0.5-5.8,3.8-5.8c3.3,0,3.8,2.9,3.8,5.8C76,326.7,75.5,329.5,72.2,329.5z"/>
	<path class="st0" d="M85.3,317.9v-1.9h-2.2v15.3h2.2V322c0-2.3,1.4-4.1,3.7-4.1c1.2,0,1.8,0.3,2.6,1.1l1.6-1.7
		c-1.1-1.1-2.2-1.4-3.7-1.4C87.8,315.9,86.1,316.7,85.3,317.9z"/>
	<path class="st0" d="M100.6,315.9c-2.5,0-4,0.5-5.4,2.3l1.5,1.4c0.9-1.3,1.9-1.7,3.8-1.7c2.8,0,3.9,1.1,3.9,3.4v1.5h-4.6
		c-3.4,0-5.3,1.7-5.3,4.4c0,1.2,0.4,2.4,1.1,3.1c1,1,2.2,1.4,4.3,1.4c2,0,3.2-0.4,4.4-1.6v1.5h2.2V321
		C106.7,317.7,104.7,315.9,100.6,315.9z M104.5,325.9c0,1.3-0.2,2.1-0.8,2.6c-1,0.9-2.1,1-3.4,1c-2.4,0-3.5-0.8-3.5-2.6
		c0-1.8,1.1-2.7,3.4-2.7h4.3V325.9z"/>
	<path class="st0" d="M125.3,315.9c-3.9,0-6.3,2.9-6.3,7.8c0,5.4,2.6,7.8,6.7,7.8c2.6,0,4-0.8,5.6-2.4l-1.5-1.3
		c-1.2,1.2-2.2,1.7-4,1.7c-2.9,0-4.5-1.9-4.5-5.3h10.3v-1C131.6,318.7,129.3,315.9,125.3,315.9z M121.3,322.6
		c0.1-1.2,0.1-1.7,0.5-2.5c0.6-1.4,2-2.3,3.6-2.3c1.6,0,3,0.9,3.6,2.3c0.3,0.8,0.4,1.3,0.5,2.5H121.3z"/>
	<polygon class="st0" points="148.2,328.3 144.1,316.1 141.6,316.1 147.2,331.3 149.2,331.3 154.8,316.1 152.4,316.1 	"/>
	<path class="st0" d="M163.1,315.9c-3.9,0-6.3,2.9-6.3,7.8c0,5.4,2.6,7.8,6.7,7.8c2.6,0,4-0.8,5.6-2.4l-1.5-1.3
		c-1.2,1.2-2.2,1.7-4,1.7c-2.9,0-4.5-1.9-4.5-5.3h10.3v-1C169.4,318.7,167,315.9,163.1,315.9z M159.1,322.6c0.1-1.2,0.1-1.7,0.5-2.5
		c0.6-1.4,2-2.3,3.6-2.3c1.6,0,3,0.9,3.6,2.3c0.3,0.8,0.4,1.3,0.5,2.5H159.1z"/>
	<path class="st0" d="M180.6,315.9c-1.7,0-3.2,0.6-4.3,1.9v-1.7h-2.2v15.3h2.2v-9.4c0-2.7,1.5-4.1,3.8-4.1s3.8,1.4,3.8,4.1v9.4h2.2
		v-9.8c0-1.8-0.5-3.2-1.6-4.3C183.6,316.4,182.3,315.9,180.6,315.9z"/>
	<path class="st0" d="M200.7,317.8c-1.2-1.6-2.6-2-4.3-2c-1.6,0-2.9,0.5-3.7,1.3c-1.6,1.6-1.9,4.1-1.9,6.5s0.3,4.9,1.9,6.5
		c0.8,0.8,2.2,1.3,3.7,1.3c1.7,0,3.1-0.4,4.3-2v1.8h2.2v-22.1h-2.2V317.8z M196.8,329.5c-3.3,0-3.8-2.9-3.8-5.8c0-3,0.5-5.8,3.8-5.8
		c3.3,0,3.8,2.9,3.8,5.8C200.7,326.7,200.2,329.5,196.8,329.5z"/>
	<path class="st0" d="M213.3,315.9c-2.5,0-4,0.5-5.4,2.3l1.5,1.4c0.9-1.3,1.9-1.7,3.8-1.7c2.8,0,3.9,1.1,3.9,3.4v1.5h-4.6
		c-3.4,0-5.3,1.7-5.3,4.4c0,1.2,0.4,2.4,1.1,3.1c1,1,2.2,1.4,4.3,1.4c2,0,3.2-0.4,4.4-1.6v1.5h2.2V321
		C219.4,317.7,217.4,315.9,213.3,315.9z M217.2,325.9c0,1.3-0.2,2.1-0.8,2.6c-1,0.9-2.1,1-3.4,1c-2.4,0-3.5-0.8-3.5-2.6
		c0-1.8,1.1-2.7,3.4-2.7h4.3V325.9z"/>
	<path class="st0" d="M241.7,317.8c-1.2-1.6-2.6-2-4.3-2c-1.6,0-2.9,0.5-3.7,1.3c-1.6,1.6-1.9,4.1-1.9,6.5s0.3,4.9,1.9,6.5
		c0.8,0.8,2.2,1.3,3.7,1.3c1.7,0,3.1-0.4,4.3-2v1.8h2.2v-22.1h-2.2V317.8z M237.8,329.5c-3.3,0-3.8-2.9-3.8-5.8c0-3,0.5-5.8,3.8-5.8
		c3.3,0,3.8,2.9,3.8,5.8C241.7,326.7,241.2,329.5,237.8,329.5z"/>
	<path class="st0" d="M254.9,315.9c-3.9,0-6.3,2.9-6.3,7.8c0,5.4,2.6,7.8,6.7,7.8c2.6,0,4-0.8,5.6-2.4l-1.5-1.3
		c-1.2,1.2-2.2,1.7-4,1.7c-2.9,0-4.5-1.9-4.5-5.3h10.3v-1C261.2,318.7,258.9,315.9,254.9,315.9z M250.9,322.6
		c0.1-1.2,0.1-1.7,0.5-2.5c0.6-1.4,2-2.3,3.6-2.3c1.6,0,3,0.9,3.6,2.3c0.3,0.8,0.4,1.3,0.5,2.5H250.9z"/>
	<path class="st0" d="M280.2,315.9c-1.7,0-3.1,0.4-4.3,2v-1.8h-2.2v22.1h2.2v-8.6c1.2,1.6,2.6,2,4.3,2c1.6,0,2.9-0.5,3.7-1.3
		c1.6-1.6,1.9-4.1,1.9-6.5s-0.3-4.9-1.9-6.5C283.1,316.4,281.8,315.9,280.2,315.9z M279.8,329.5c-3.3,0-3.8-2.9-3.8-5.8
		c0-3,0.5-5.8,3.8-5.8c3.3,0,3.8,2.9,3.8,5.8C283.6,326.7,283.1,329.5,279.8,329.5z"/>
	<path class="st0" d="M292.8,317.9v-1.9h-2.2v15.3h2.2V322c0-2.3,1.4-4.1,3.7-4.1c1.2,0,1.8,0.3,2.6,1.1l1.6-1.7
		c-1.1-1.1-2.2-1.4-3.7-1.4C295.4,315.9,293.7,316.7,292.8,317.9z"/>
	<path class="st0" d="M308.1,315.9c-3.9,0-6.3,2.9-6.3,7.8c0,5.4,2.6,7.8,6.7,7.8c2.6,0,4-0.8,5.6-2.4l-1.5-1.3
		c-1.2,1.2-2.2,1.7-4,1.7c-2.9,0-4.5-1.9-4.5-5.3h10.3v-1C314.3,318.7,312,315.9,308.1,315.9z M304,322.6c0.1-1.2,0.1-1.7,0.5-2.5
		c0.6-1.4,2-2.3,3.6-2.3s3,0.9,3.6,2.3c0.3,0.8,0.4,1.3,0.5,2.5H304z"/>
	<path class="st0" d="M325,317.9c1.5,0,2.4,0.4,3.5,1.7l1.5-1.4c-1.6-1.7-2.9-2.3-5-2.3c-3.8,0-6.8,2.6-6.8,7.8s2.9,7.8,6.8,7.8
		c2.1,0,3.4-0.6,5-2.3l-1.5-1.5c-1.1,1.3-2,1.7-3.5,1.7c-1.5,0-2.7-0.6-3.5-1.7c-0.7-1-1-2.2-1-4.1s0.3-3.1,1-4.1
		C322.3,318.5,323.5,317.9,325,317.9z"/>
	<path class="st0" d="M338.7,315.9c-2.5,0-4,0.5-5.4,2.3l1.5,1.4c0.9-1.3,1.9-1.7,3.8-1.7c2.8,0,3.9,1.1,3.9,3.4v1.5H338
		c-3.4,0-5.3,1.7-5.3,4.4c0,1.2,0.4,2.4,1.1,3.1c1,1,2.2,1.4,4.3,1.4c2,0,3.2-0.4,4.4-1.6v1.5h2.2V321
		C344.8,317.7,342.8,315.9,338.7,315.9z M342.6,325.9c0,1.3-0.2,2.1-0.8,2.6c-1,0.9-2.1,1-3.4,1c-2.4,0-3.5-0.8-3.5-2.6
		c0-1.8,1.1-2.7,3.4-2.7h4.3V325.9z"/>
	<path class="st0" d="M352.9,311.4h-2.2v4.8h-1.9v1.7h1.9v9.4c0,2.3,1.3,4.1,3.9,4.1h1.6v-1.9h-1.2c-1.4,0-2.1-0.8-2.1-2.2v-9.3h3.3
		v-1.7h-3.3V311.4z"/>
	<polygon class="st0" points="369.6,308.2 367,308.2 364.2,312.9 366.3,312.9 	"/>
	<path class="st0" d="M365.8,315.9c-1.9,0-3.3,0.7-4.4,1.7c-1.6,1.6-1.9,3.7-1.9,6.1s0.3,4.5,1.9,6.1c1.1,1.1,2.5,1.7,4.4,1.7
		s3.3-0.7,4.4-1.7c1.6-1.6,1.9-3.7,1.9-6.1s-0.3-4.5-1.9-6.1C369.1,316.6,367.6,315.9,365.8,315.9z M368.5,328.4
		c-0.7,0.7-1.7,1.1-2.8,1.1c-1.1,0-2-0.4-2.8-1.1c-1.1-1.1-1.2-3-1.2-4.7c0-1.7,0.1-3.6,1.2-4.7c0.7-0.7,1.7-1.1,2.8-1.1
		c1.1,0,2.1,0.4,2.8,1.1c1.1,1.1,1.2,3,1.2,4.7C369.8,325.4,369.7,327.3,368.5,328.4z"/>
	<path class="st0" d="M379,317.9v-1.9h-2.2v15.3h2.2V322c0-2.3,1.4-4.1,3.7-4.1c1.2,0,1.8,0.3,2.6,1.1l1.6-1.7
		c-1.1-1.1-2.2-1.4-3.7-1.4C381.5,315.9,379.9,316.7,379,317.9z"/>
	<rect x="389.7" y="309.2" class="st0" width="2.5" height="2.5"/>
	<rect x="389.9" y="316.1" class="st0" width="2.2" height="15.3"/>
	<path class="st0" d="M403.1,315.9c-1.9,0-3.3,0.7-4.4,1.7c-1.6,1.6-1.9,3.7-1.9,6.1s0.3,4.5,1.9,6.1c1.1,1.1,2.5,1.7,4.4,1.7
		s3.3-0.7,4.4-1.7c1.6-1.6,1.9-3.7,1.9-6.1s-0.3-4.5-1.9-6.1C406.5,316.6,405,315.9,403.1,315.9z M405.9,328.4
		c-0.7,0.7-1.7,1.1-2.8,1.1s-2-0.4-2.8-1.1c-1.1-1.1-1.2-3-1.2-4.7c0-1.7,0.1-3.6,1.2-4.7c0.7-0.7,1.7-1.1,2.8-1.1s2.1,0.4,2.8,1.1
		c1.1,1.1,1.2,3,1.2,4.7C407.1,325.4,407.1,327.3,405.9,328.4z"/>
	<path class="st0" d="M420.7,322.7l-2.5-0.2c-1.9-0.2-2.7-0.9-2.7-2.2c0-1.6,1.2-2.5,3.4-2.5c1.6,0,3,0.4,4.1,1.2l1.5-1.5
		c-1.4-1.1-3.3-1.6-5.5-1.6c-3.3,0-5.6,1.7-5.6,4.5c0,2.5,1.6,3.8,4.6,4.1l2.5,0.2c1.8,0.2,2.5,0.9,2.5,2.2c0,1.8-1.6,2.7-4.1,2.7
		c-1.9,0-3.5-0.5-4.7-1.8l-1.5,1.5c1.7,1.6,3.7,2.2,6.3,2.2c3.7,0,6.2-1.7,6.2-4.7C425.2,324,423.4,323,420.7,322.7z"/>
</g>
</svg>
